<?xml version="1.0" encoding="UTF-8" standalone="no"?>
<!-- Created with Inkscape (http://www.inkscape.org/) -->
<svg
   xmlns:dc="http://purl.org/dc/elements/1.1/"
   xmlns:cc="http://web.resource.org/cc/"
   xmlns:rdf="http://www.w3.org/1999/02/22-rdf-syntax-ns#"
   xmlns:svg="http://www.w3.org/2000/svg"
   xmlns="http://www.w3.org/2000/svg"
   xmlns:sodipodi="http://sodipodi.sourceforge.net/DTD/sodipodi-0.dtd"
   xmlns:inkscape="http://www.inkscape.org/namespaces/inkscape"
   version="1.0"
   width="1014"
   height="828"
   id="svg2584"
   sodipodi:version="0.32"
   inkscape:version="0.45.1"
   sodipodi:docname="Belgium_railroad_map - spoorlijn 58.svg"
   inkscape:output_extension="org.inkscape.output.svg.inkscape"
   sodipodi:docbase="C:\Documents and Settings\HP_Administrator\Mijn documenten\Mijn afbeeldingen">
  <metadata
     id="metadata129">
    <rdf:RDF>
      <cc:Work
         rdf:about="">
        <dc:format>image/svg+xml</dc:format>
        <dc:type
           rdf:resource="http://purl.org/dc/dcmitype/StillImage" />
      </cc:Work>
    </rdf:RDF>
  </metadata>
  <sodipodi:namedview
     inkscape:window-height="712"
     inkscape:window-width="1024"
     inkscape:pageshadow="2"
     inkscape:pageopacity="0.0"
     guidetolerance="10.0"
     gridtolerance="10.0"
     objecttolerance="10.0"
     borderopacity="1.0"
     bordercolor="#666666"
     pagecolor="#ffffff"
     id="base"
     inkscape:zoom="0.90357463"
     inkscape:cx="253.63838"
     inkscape:cy="568.28185"
     inkscape:window-x="14"
     inkscape:window-y="-11"
     inkscape:current-layer="layer4" />
  <defs
     id="defs2586" />
  <g
     inkscape:groupmode="layer"
     id="layer3"
     inkscape:label="Belg"
     style="display:inline">
    <g
       id="g12723">
      <path
         d="M 229.90829,311.71428 L 223.65457,312.63105 L 222.25204,319.43749 L 213.8815,320.73214 L 212.14044,328.32142 L 201.37591,322.75031 L 202.18508,317.33928 L 196.51544,309.92856 L 184.90829,310.28571 L 174.72972,303.14285 L 164.19401,309.57142 L 171.33686,325.28571 L 179.19401,326.71428 L 185.62258,334.57142 L 180.62258,345.28571 L 185.62258,368.14285 L 189.90829,393.85714 L 198.47972,408.14285 L 215.62258,418.85714 L 241.33686,403.85714 L 253.47972,405.99999 L 244.90829,418.85714 L 264.90829,414.57142 L 280.62258,423.85714 L 292.76543,443.85714 L 289.19401,467.42857 L 291.26517,482.80532 L 302.46957,496.17331 L 306.65319,490.97389 L 309.31655,478.0203 L 326.01234,475.42451 L 339.90829,477.42857 L 351.33686,486.71428 L 383.3064,475.45159 L 411.33686,500.28571 L 414.90829,516.71428 L 422.76543,516 L 421.33686,503.85714 L 434.19401,511.71428 L 434.19401,522.42857 L 418.47972,534.57142 L 419.19401,556 L 410.62258,566 L 417.05115,568.85714 L 429.90829,567.42857 L 430.62258,580.28571 L 438.47972,593.85714 L 429.19401,603.14285 L 418.47972,602.42857 L 413.47972,615.28571 L 421.33686,623.14285 L 417.76543,631.71428 L 430.62258,638.14285 L 457.76543,633.85714 L 492.05115,646.71428 L 494.90829,641 L 486.33686,622.42857 L 485.62258,601 L 481.33686,591.71428 L 479.19401,573.85714 L 484.19401,570.28571 L 479.90829,559.57142 L 473.47972,554.57142 L 481.33686,545.28571 L 481.33686,535.28571 L 483.47972,526.71428 L 475.62258,522.42857 L 468.47972,527.42857 L 453.47972,518.14285 L 467.76543,506 L 481.33686,500.28571 L 482.76543,492.42857 L 501.33686,495.28571 L 503.47972,487.42857 L 511.33686,487.42857 L 517.76543,493.14285 L 534.19401,488.14285 L 533.47972,481.71428 L 531.33686,469.57142 L 537.05115,463.85714 L 532.76543,458.85714 L 537.05115,455.28571 L 541.33686,445.28571 L 534.90829,445.28571 L 529.19401,435.99999 L 534.90829,425.99999 L 533.47972,418.14285 L 525.62258,417.42857 L 525.62258,408.85714 L 529.90829,405.99999 L 529.90829,398.85714 L 512.76543,404.57142 L 509.90829,398.85714 L 501.33686,403.85714 L 503.47972,393.14285 L 483.47972,389.57142 L 474.19401,389.57142 L 466.33686,398.14285 L 465.62258,388.14285 L 457.05115,384.57142 L 450.62258,377.42857 L 443.47972,375.99999 L 442.76543,368.14285 L 431.33686,363.85714 L 430.62258,353.14285 L 424.90829,348.85714 L 415.62258,363.14285 L 403.47972,359.57142 L 403.47972,346.71428 L 404.90829,338.85714 L 402.05115,330.28571 L 397.76543,328.85714 L 390.62258,333.85714 L 370.62258,339.57142 L 357.76543,335.28571 L 349.90829,328.14285 L 351.33686,318.85714 L 347.05115,313.14285 L 335.62258,315.28571 L 327.76543,311.71428 L 319.90829,311.71428 L 314.90829,302.42857 L 304.19401,304.57142 L 304.19401,299.57142 L 294.90829,303.14285 L 284.90829,317.42857 L 284.90829,326.71428 L 274.90829,318.85714 L 260.62258,318.85714 L 260.62258,311.71428 L 257.76543,306.71428 L 247.05115,309.57142 L 237.05115,304.57142 L 229.90829,311.71428 z "
         style="fill:#d5d5d5;fill-opacity:1;fill-rule:evenodd;stroke:#e9e9e9;stroke-width:2;stroke-linecap:butt;stroke-linejoin:miter;stroke-miterlimit:4;stroke-dasharray:none;stroke-opacity:1"
         id="path2622" />
      <path
         d="M 157.57365,299.62492 L 164.19401,309.57142 L 174.72972,303.14285 L 184.90829,310.28571 L 196.51544,309.92856 L 202.18508,317.33928 L 201.37591,322.75031 L 212.14044,328.32142 L 213.8815,320.73214 L 222.25204,319.43749 L 223.65457,312.63105 L 229.90829,311.71428 L 237.05115,304.57142 L 243.94169,299.62492 L 246.97214,293.564 L 253.03306,292.55385 L 255.55844,290.02847 L 248.99245,279.92694 L 252.52798,278.91679 L 244.95184,267.80511 L 240.40615,267.80511 L 235.35539,261.23912 L 240.40615,260.73405 L 244.95184,254.16805 L 237.3757,247.09699 L 232.32493,251.64267 L 226.76909,246.59191 L 230.8097,241.54115 L 230.30463,235.48023 L 236.87062,239.01577 L 238.89092,235.48023 L 233.33508,233.45993 L 238.89092,232.95485 L 235.86047,228.91424 L 227.77925,228.40916 L 226.76909,225.37871 L 234.34524,221.3381 L 230.30463,217.29749 L 233.33508,211.74165 L 237.88077,206.69088 L 229.79955,192.54875 L 233.33508,191.5386 L 235.35539,189.01321 L 221.71833,179.41677 L 208.58635,169.31524 L 207.07112,165.77971 L 219.69803,156.68833 L 225.75894,144.06143 L 221.21325,130.92944 L 214.14219,128.90914 L 220.70818,124.36345 L 217.67772,116.78731 L 216.66757,114.26193 L 224.74879,110.72639 L 224.74879,106.68578 L 219.19295,93.5538 L 221.21325,90.01826 L 216.16249,85.47258 L 219.19295,83.45227 L 214.64726,78.40151 L 223.23356,70.82537 L 218.1828,64.76445 L 219.19295,60.21876 L 215.65742,55.67308 L 180.30208,68.80506 L 171.2107,64.25937 L 168.18025,71.83552 L 141.91628,81.43197 L 135.35029,89.00811 L 106.05587,106.18071 L 101.0051,106.68578 L 92.923882,114.767 L 34.840111,150.62742 L 1,166.28478 L 6.050763,177.90154 L 8.576144,197.59951 L 10.091373,204.67058 L 17.162441,206.69088 L 16.657365,211.74165 L 22.71828,228.40916 L 10.59645,238.51069 L 15.647212,240.02592 L 17.162441,260.22897 L 12.616755,266.28988 L 17.667517,266.28988 L 22.213204,281.44217 L 29.284272,282.9574 L 30.7995,277.90664 L 34.335034,282.45232 L 42.921331,280.9371 L 45.446712,283.46248 L 45.446712,289.01832 L 54.538085,299.11984 L 54.033009,303.16045 L 59.588848,308.21121 L 66.15484,322.85843 L 76.256365,320.33305 L 81.307128,326.89904 L 83.327433,324.37366 L 76.256365,314.27213 L 79.791899,312.7569 L 76.761441,307.70614 L 84.842662,304.1706 L 89.893424,308.71629 L 96.459416,305.68583 L 96.459416,303.16045 L 108.07617,299.11984 L 103.02541,290.53355 L 117.16754,284.47263 L 121.71323,285.98786 L 121.71323,295.58431 L 125.75384,297.09954 L 123.22846,301.14015 L 133.83506,296.59446 L 140.90613,301.64522 L 146.46197,291.5437 L 150.50258,294.57416 L 157.06857,294.57416 L 157.57365,299.62492 z "
         style="fill:#d5d5d5;fill-opacity:1;fill-rule:evenodd;stroke:#e9e9e9;stroke-width:2;stroke-linecap:butt;stroke-linejoin:miter;stroke-miterlimit:4;stroke-dasharray:none;stroke-opacity:1"
         id="path2624" />
      <path
         d="M 356.06862,320.83813 L 351.33686,318.85714 L 347.05115,313.14285 L 335.62258,315.28571 L 327.76543,311.71428 L 319.90829,311.71428 L 314.90829,302.42857 L 304.19401,304.57142 L 304.19401,299.57142 L 294.90829,303.14285 L 284.90829,317.42857 L 284.90829,326.71428 L 274.90829,318.85714 L 260.62258,318.85714 L 260.62258,311.71428 L 257.76543,306.71428 L 247.05115,309.57142 L 237.05115,304.57142 L 243.94169,299.62492 L 246.97214,293.564 L 253.03306,292.55385 L 255.55844,290.02847 L 248.99245,279.92694 L 252.52798,278.91679 L 244.95184,267.80511 L 240.40615,267.80511 L 235.35539,261.23912 L 240.40615,260.73405 L 244.95184,254.16805 L 237.3757,247.09699 L 232.32493,251.64267 L 226.76909,246.59191 L 230.8097,241.54115 L 230.30463,235.48023 L 236.87062,239.01577 L 238.89092,235.48023 L 233.33508,233.45993 L 238.89092,232.95485 L 235.86047,228.91424 L 227.77925,228.40916 L 226.76909,225.37871 L 234.34524,221.3381 L 230.30463,217.29749 L 233.33508,211.74165 L 237.88077,206.69088 L 229.79955,192.54875 L 233.33508,191.5386 L 235.35539,189.01321 L 221.71833,179.41677 L 208.58635,169.31524 L 207.07112,165.77971 L 219.69803,156.68833 L 225.75894,144.06143 L 221.21325,130.92944 L 214.14219,128.90914 L 220.70818,124.36345 L 217.67772,116.78731 L 216.66757,114.26193 L 224.74879,110.72639 L 224.74879,106.68578 L 219.19295,93.5538 L 229.79955,102.64518 L 232.83001,109.21117 L 258.08382,106.68579 L 255.55844,90.01827 L 269.1955,87.99797 L 272.22596,90.01827 L 275.25641,83.45228 L 287.37824,90.52335 L 291.92393,89.00812 L 307.07622,97.59442 L 327.27927,103.65533 L 325.76404,121.83808 L 344.45186,122.84823 L 349.50263,117.79747 L 353.03816,117.79747 L 348.99755,126.88884 L 357.58385,124.86853 L 361.11938,118.30254 L 364.65491,121.83808 L 383.34274,110.22132 L 395.46457,110.22132 L 424.25391,89.00812 L 441.93158,64.76446 L 450.0128,68.80507 L 450.0128,80.9269 L 452.53818,87.99797 L 462.13463,90.52335 L 462.13463,96.58426 L 456.57879,104.16041 L 458.09402,121.83808 L 462.13463,133.45483 L 465.16509,133.45483 L 464.15494,155.17311 L 459.60925,159.7188 L 451.52803,159.21372 L 444.45696,163.75941 L 437.89097,160.22387 L 433.85036,160.22387 L 425.76914,167.29494 L 424.25391,175.37616 L 428.29452,175.37616 L 428.29452,184.97261 L 431.83006,184.97261 L 428.29452,192.04368 L 432.33513,197.09444 L 438.90113,192.54875 L 442.43666,195.57921 L 441.42651,202.1452 L 436.88082,204.67058 L 440.41635,209.21627 L 429.30468,218.30764 L 420.71838,214.77211 L 416.67777,223.86348 L 421.22346,232.44978 L 418.69807,234.97516 L 415.16254,244.06653 L 404.55594,238.51069 L 401.02041,250.12745 L 397.48487,250.12745 L 402.53563,256.69344 L 401.02041,262.75436 L 395.96964,263.25943 L 389.40365,278.9168 L 398.49502,278.9168 L 398.49502,286.99802 L 391.92903,299.11985 L 385.36304,299.62492 L 382.83766,304.67569 L 378.79705,300.13 L 377.28182,305.68584 L 369.70568,305.68584 L 370.71583,300.63508 L 366.17014,300.63508 L 362.12953,309.22137 L 362.12953,313.76706 L 366.17014,318.81782 L 363.64476,321.84828 L 356.06862,320.83813 z "
         style="fill:#d5d5d5;fill-opacity:1;fill-rule:evenodd;stroke:#e9e9e9;stroke-width:2;stroke-linecap:butt;stroke-linejoin:miter;stroke-miterlimit:4;stroke-dasharray:none;stroke-opacity:1"
         id="path2639" />
      <path
         d="M 441.93158,64.76446 L 435.62258,56 L 465.62257,54.92857 L 472.05115,63.85714 L 480.62257,64.21429 L 492.05115,55.28572 L 478.12257,36.71429 L 482.76543,27.78572 L 478.12257,25.64286 L 500.62257,12.78572 L 519.194,12.07143 L 522.76543,16.71429 L 516.33686,22.42857 L 517.76543,35.28572 L 528.12257,30.64286 L 544.90829,35.64286 L 552.76543,34.21429 L 550.62257,26.35714 L 559.55115,23.85714 L 561.33686,16.71429 L 573.12257,3.85714 L 580.97972,1 L 590.62257,7.42857 L 592.76543,11.35714 L 596.694,11.71429 L 595.26543,22.42857 L 593.47972,25.28572 L 594.194,36.71429 L 582.40829,31.71429 L 577.76543,31.71429 L 579.194,38.5 L 583.47972,40.64286 L 597.05115,37.78572 L 602.40829,41.35714 L 608.47972,37.78572 L 618.12257,47.78572 L 640.97972,21.71429 L 638.47972,17.07143 L 647.05115,7.78572 L 649.90829,14.57143 L 658.47972,15.28572 L 664.55115,31.35714 L 657.05115,47.07143 L 671.694,67.07143 L 672.40829,77.42857 L 680.62257,81.35714 L 689.194,76 L 700.26543,83.5 L 697.05114,97.42857 L 699.55114,101 L 694.194,106.71429 L 694.55114,121.35714 L 706.33686,132.78571 L 705.97972,148.14286 L 699.194,154.21429 L 693.12257,150.28571 L 688.47972,158.85714 L 673.83686,161.71429 L 664.55115,171 L 662.40829,174.21429 L 642.76543,179.92857 L 640.62257,186 L 633.83686,194.92857 L 629.90829,189.92857 L 624.90829,194.21429 L 616.33686,194.21429 L 614.194,199.21429 L 606.33686,201 L 598.12257,205.64286 L 589.90829,205.64286 L 589.55115,199.57143 L 584.194,193.5 L 577.40829,200.64286 L 569.55115,198.85714 L 563.47972,206.71429 L 560.62257,211.35714 L 562.40829,203.5 L 559.194,202.78571 L 557.76543,199.92857 L 547.76543,201.35714 L 542.05115,204.92857 L 537.40829,204.92857 L 535.62257,212.78571 L 528.83686,213.14286 L 523.12257,208.14286 L 515.97972,212.78571 L 506.694,205.64286 L 500.97972,211.71429 L 497.05115,208.14286 L 488.83686,211.71429 L 480.62257,209.92857 L 480.97972,205.64286 L 476.33686,204.21429 L 477.40829,197.42857 L 472.40829,203.14286 L 465.26543,201.71429 L 459.194,193.85714 L 449.55115,192.42857 L 448.47972,195.28571 L 442.43666,195.57921 L 438.90113,192.54875 L 432.33513,197.09444 L 428.29452,192.04368 L 431.83006,184.97261 L 428.29452,184.97261 L 428.29452,175.37616 L 424.25391,175.37616 L 425.76914,167.29494 L 433.85036,160.22387 L 437.89097,160.22387 L 444.45696,163.75941 L 451.52803,159.21372 L 459.60925,159.7188 L 464.15494,155.17311 L 465.16509,133.45483 L 462.13463,133.45483 L 458.09402,121.83808 L 456.57879,104.16041 L 462.13463,96.58426 L 462.13463,90.52335 L 452.53818,87.99797 L 450.0128,80.9269 L 450.0128,68.80507 L 441.93158,64.76446 z M 615.62257,30.28572 L 622.76543,33.5 L 625.62257,21.71429 L 617.76543,25.28572 L 615.62257,30.28572 z "
         style="fill:#d5d5d5;fill-opacity:1;fill-rule:evenodd;stroke:#e9e9e9;stroke-width:2;stroke-linecap:butt;stroke-linejoin:miter;stroke-miterlimit:4;stroke-dasharray:none;stroke-opacity:1"
         id="path2184" />
      <path
         d="M 699.55114,101 L 706.694,98.5 L 713.83686,101 L 726.33686,100.64286 L 727.05114,94.57143 L 746.33686,101 L 752.05114,91 L 757.76543,91.71429 L 762.76543,84.92857 L 770.26543,85.64286 L 783.12257,98.85714 L 782.76543,114.57143 L 807.40829,125.64286 L 807.76543,130.28571 L 822.05114,132.07143 L 832.76543,129.57143 L 839.90829,133.5 L 838.47972,138.85714 L 840.62257,144.21429 L 853.12257,138.14286 L 860.26543,147.42857 L 857.76543,153.14286 L 852.05114,153.14286 L 848.12257,160.28571 L 854.194,162.78571 L 853.47972,168.85714 L 848.47972,167.07143 L 844.194,168.85714 L 848.83686,173.14286 L 846.33686,177.07143 L 846.694,182.07143 L 839.194,181.35714 L 839.194,186 L 835.62257,193.14286 L 841.694,196 L 837.05114,201 L 839.194,207.07143 L 826.694,223.85714 L 828.12257,227.78571 L 833.83686,222.07143 L 837.05114,225.64286 L 828.83686,237.78571 L 828.12257,246 L 821.694,243.5 L 817.05114,255.64286 L 808.47972,260.64286 L 806.33686,272.07143 L 811.33686,282.07143 L 820.62257,285.64286 L 809.55114,287.78571 L 808.83686,295.64286 L 795.26543,300.64286 L 784.55114,305.28571 L 777.40829,307.42857 L 775.97972,314.21429 L 765.62257,321.35714 L 764.55114,318.14286 L 760.97972,314.92857 L 760.97972,318.85714 L 756.694,322.78571 L 749.194,322.78571 L 743.12257,317.42857 L 741.33686,312.07143 L 739.55114,313.85714 L 731.33686,313.5 L 721.694,320.64286 L 721.33686,325.64286 L 712.76543,319.92857 L 708.12257,326 L 703.12257,325.64286 L 702.40829,321.71429 L 699.90829,325.28571 L 685.26543,323.5 L 685.62257,327.78571 L 688.83686,332.42857 L 684.90829,334.92857 L 675.62257,332.78571 L 667.76543,326.71429 L 671.694,317.78571 L 667.40829,314.21429 L 669.90829,306.35714 L 669.90829,294.21429 L 674.90829,294.92857 L 678.12257,286.35714 L 674.55115,286 L 676.694,270.28571 L 680.97972,263.14286 L 680.26543,259.21429 L 684.90829,261.71429 L 688.47972,252.42857 L 686.33686,245.28571 L 675.97972,245.28571 L 674.55115,241.35714 L 663.47972,246 L 659.55115,241.35714 L 655.62257,243.5 L 649.55115,231.35714 L 660.62257,223.85714 L 659.90829,216.35714 L 668.47972,210.28571 L 671.694,210.28571 L 669.55115,200.28571 L 672.05115,202.42857 L 675.62257,202.42857 L 679.194,199.21429 L 669.194,188.5 L 659.55115,188.5 L 660.62257,198.85714 L 654.90829,202.78571 L 651.33686,199.21429 L 644.55115,201 L 640.62257,193.85714 L 633.83686,194.92857 L 640.62257,186 L 642.76543,179.92857 L 662.40829,174.21429 L 664.55115,171 L 673.83686,161.71429 L 688.47972,158.85714 L 693.12257,150.28571 L 699.194,154.21429 L 705.97972,148.14286 L 706.33686,132.78571 L 694.55114,121.35714 L 694.194,106.71429 L 699.55114,101 z "
         style="fill:#d5d5d5;fill-opacity:1;fill-rule:evenodd;stroke:#e9e9e9;stroke-width:2;stroke-linecap:butt;stroke-linejoin:miter;stroke-miterlimit:4;stroke-dasharray:none;stroke-opacity:1"
         id="path2198" />
      <path
         d="M 588.47972,638.85714 L 597.76543,643.14285 L 600.26543,641 L 604.90829,649.92857 L 610.97972,652.07143 L 613.12257,659.57143 L 610.26543,664.92857 L 606.694,677.07143 L 602.40829,677.07143 L 605.26543,685.28571 L 608.47972,686.71428 L 608.47972,694.21428 L 611.694,697.07143 L 608.12257,697.42857 L 606.694,703.5 L 604.55115,707.07143 L 621.694,709.21428 L 629.90829,703.85714 L 635.97972,702.78571 L 639.194,692.78571 L 640.97972,681.71428 L 649.55115,676.71428 L 648.83686,673.85714 L 652.76543,673.85714 L 659.55115,668.14285 L 655.26543,664.57143 L 660.97972,656.35714 L 668.47972,654.21428 L 674.194,653.5 L 668.83686,646 L 669.90829,636.71428 L 666.33686,636.35714 L 659.194,628.5 L 655.97972,626.71428 L 648.47972,630.64285 L 644.194,628.5 L 646.33686,623.85714 L 636.33686,609.21428 L 640.26543,608.5 L 642.40829,602.42857 L 645.97972,605.28571 L 652.05115,599.92857 L 658.12257,588.85714 L 656.694,578.14285 L 660.26543,570.28571 L 659.55115,577.07143 L 662.05115,582.07143 L 672.76543,579.92857 L 682.05114,582.78571 L 701.33686,579.57143 L 702.76543,574.57143 L 713.12257,575.64285 L 714.194,572.07143 L 707.40829,565.28571 L 714.90829,563.5 L 717.40829,557.78571 L 706.33686,543.85714 L 706.694,536 L 703.12257,532.07143 L 695.97972,531.35714 L 700.97972,526.71428 L 704.55114,530.28571 L 711.33686,526 L 707.40829,522.07143 L 716.694,518.5 L 719.194,521.71428 L 731.694,512.07143 L 745.97972,502.07143 L 744.55114,491.35714 L 738.47972,489.21428 L 733.12257,494.21428 L 731.33686,491.35714 L 733.83686,487.78571 L 739.55114,485.28571 L 745.97972,480.64286 L 741.694,475.64286 L 747.76543,468.5 L 745.01816,462.77196 L 742.76543,461 L 738.12257,463.85714 L 734.55114,459.92857 L 720.26543,469.92857 L 714.90829,464.57143 L 716.694,456.71428 L 703.83686,455.28571 L 700.62257,448.5 L 703.47972,446.71428 L 703.47972,441 L 692.76543,423.14286 L 688.83686,424.21428 L 686.694,428.5 L 682.05114,423.5 L 682.76543,418.85714 L 677.76543,421 L 675.26543,414.21428 L 678.83686,409.92857 L 669.194,412.42857 L 664.55115,403.14286 L 655.97972,402.07143 L 654.90829,394.21428 L 648.83686,381 L 641.33686,374.92857 L 641.33686,371.35714 L 636.694,366.71428 L 636.33686,358.14286 L 631.33686,354.57143 L 625.97972,356 L 622.40829,363.14286 L 616.33686,362.42857 L 613.12257,364.92857 L 594.55115,370.64286 L 590.62257,370.64286 L 586.694,378.85714 C 586.694,378.85714 584.194,375.64286 584.194,374.21428 C 584.194,372.78571 578.12257,374.57143 578.12257,374.57143 L 573.83686,378.5 L 570.26543,369.57143 L 564.55115,372.78571 L 563.47972,376.71428 L 555.26543,371 L 550.26543,372.78571 L 551.33686,383.14286 L 555.97972,387.07143 L 548.12257,391 L 538.12257,387.07143 L 528.83686,392.42857 L 529.90829,398.85714 L 529.90829,405.99999 L 525.62258,408.85714 L 525.62258,417.42857 L 533.47972,418.14285 L 534.90829,425.99999 L 529.19401,435.99999 L 534.90829,445.28571 L 541.33686,445.28571 L 537.05115,455.28571 L 532.76543,458.85714 L 537.05115,463.85714 L 531.33686,469.57142 L 533.47972,481.71428 L 534.19401,488.14285 L 517.76543,493.14285 L 511.33686,487.42857 L 503.47972,487.42857 L 501.33686,495.28571 L 482.76543,492.42857 L 481.33686,500.28571 L 467.76543,506 L 453.47972,518.14285 L 468.47972,527.42857 L 475.62258,522.42857 L 483.47972,526.71428 L 481.33686,535.28571 L 481.33686,545.28571 L 473.47972,554.57142 L 479.90829,559.57142 L 484.19401,570.28571 L 479.19401,573.85714 L 481.33686,591.71428 L 485.62258,601 L 486.33686,622.42857 L 494.90829,641 L 492.05115,646.71428 L 499.194,646.71428 L 504.194,643.14285 L 514.194,643.14285 L 521.33686,635.28571 L 527.05115,635.28571 L 532.76543,627.42857 L 544.90829,627.42857 L 560.62257,622.42857 L 559.90829,608.85714 L 562.76543,598.14285 L 559.194,597.42857 L 562.76543,582.42857 L 576.33686,575.28571 L 579.90829,565.28571 L 589.194,559.57143 L 594.194,552.42857 L 598.47972,559.57143 L 609.194,558.85714 L 609.90829,563.85714 L 614.194,563.85714 L 607.76543,571 L 609.194,586.71428 L 603.47972,579.57143 L 599.194,580.28571 L 600.62257,593.14285 L 595.62257,593.14285 L 594.90829,599.57143 L 599.90829,602.42857 L 600.62257,608.14285 L 595.62257,608.85714 L 593.47972,623.14285 L 588.47972,629.57143 L 587.76543,635.28571 L 588.47972,638.85714 z "
         style="fill:#d5d5d5;fill-opacity:1;fill-rule:evenodd;stroke:#e9e9e9;stroke-width:2;stroke-linecap:butt;stroke-linejoin:miter;stroke-miterlimit:4;stroke-dasharray:none;stroke-opacity:1"
         id="path2248" />
      <path
         d="M 635.97972,702.78571 L 642.44686,703.93848 L 646.23493,711.26208 L 661.38722,719.84838 L 668.20575,717.323 L 677.8022,732.22275 L 677.04459,739.29382 L 684.11565,740.05143 L 685.37834,736.26336 L 687.65119,738.78874 L 689.67149,747.37504 L 709.87454,749.1428 L 715.68292,744.84965 L 732.85551,762.77986 L 725.78445,772.62885 L 727.80475,780.71007 L 735.3809,777.93215 L 737.90628,771.6187 L 751.54334,778.9423 L 758.86694,786.77098 L 761.8974,797.88266 L 766.44309,797.63012 L 762.90755,804.70119 L 769.97862,810.50957 L 769.97862,814.55018 L 764.67532,818.59079 L 769.97862,822.6314 L 769.22101,826.92455 L 774.77684,823.13648 L 790.18167,819.09587 L 792.70705,813.54003 L 804.32381,816.31795 L 808.11188,822.37886 L 811.39487,817.07556 L 809.62711,812.78241 L 819.98117,802.93343 L 832.86062,808.23673 L 844.98245,807.47911 L 847.00275,800.91312 L 851.54844,797.88266 L 857.35681,803.4385 L 865.94311,803.4385 L 876.54971,792.8319 L 876.54971,786.77098 L 870.99387,787.27606 L 870.99387,782.98291 L 878.57002,778.18469 L 880.59032,767.32555 L 885.89362,766.56793 L 885.89362,756.46641 L 875.28702,751.41565 L 874.78195,744.84965 L 880.59032,737.27351 L 873.77179,729.19229 L 869.47865,733.2329 L 864.42788,731.21259 L 865.1855,720.85853 L 853.56874,701.91817 L 844.98245,704.19101 L 840.6893,684.74558 L 844.98245,678.68466 L 843.97229,670.85598 L 850.03321,671.86613 L 852.30605,667.57299 L 839.17407,660.24938 L 845.23498,653.17831 L 849.52813,643.07679 L 849.27559,633.73287 L 857.35681,632.47018 L 859.12458,629.18719 L 865.69057,626.91435 L 865.69057,621.61104 L 861.14489,618.83313 L 860.13473,613.02475 L 869.98372,606.45876 L 873.51926,596.86231 L 868.72103,593.57931 L 869.73118,589.28616 L 876.80225,584.74048 L 878.57002,571.60849 L 895.99515,563.27474 L 896.75276,546.10214 L 912.15759,541.55646 L 914.68297,530.44478 L 909.12713,531.96001 L 910.38982,512.76711 L 908.36952,487.26076 L 900.03576,483.47268 L 900.03576,480.9473 L 894.73246,481.70492 L 888.41901,478.42192 L 885.64109,481.19984 L 867.96342,474.38131 L 865.94311,482.71507 L 870.99387,485.49299 L 865.1855,502.91812 L 874.52941,502.41304 L 872.00403,507.71635 L 855.58905,509.98919 L 854.5789,513.27218 L 853.3162,509.98919 L 842.20453,507.21127 L 838.92153,513.27218 L 830.84031,509.48411 L 839.42661,494.58436 L 831.09285,491.04883 L 829.57762,475.13893 L 832.60808,473.11862 L 832.60808,470.59324 L 818.46594,472.36101 L 808.36442,466.80517 L 796.24259,454.17826 L 786.89868,459.7341 L 778.56492,452.91557 L 775.53446,444.32927 L 764.42278,451.1478 L 753.3111,441.80389 L 748.26034,445.08689 L 748.0078,450.13765 L 752.04841,450.13765 L 754.82633,453.92572 L 745.01816,462.77196 L 747.76543,468.5 L 741.694,475.64286 L 745.97972,480.64286 L 739.55114,485.28571 L 733.83686,487.78571 L 731.33686,491.35714 L 733.12257,494.21428 L 738.47972,489.21428 L 744.55114,491.35714 L 745.97972,502.07143 L 731.694,512.07143 L 719.194,521.71428 L 716.694,518.5 L 707.40829,522.07143 L 711.33686,526 L 704.55114,530.28571 L 700.97972,526.71428 L 695.97972,531.35714 L 703.12257,532.07143 L 706.694,536 L 706.33686,543.85714 L 717.40829,557.78571 L 714.90829,563.5 L 707.40829,565.28571 L 714.194,572.07143 L 713.12257,575.64285 L 702.76543,574.57143 L 701.33686,579.57143 L 682.05114,582.78571 L 672.76543,579.92857 L 662.05115,582.07143 L 659.55115,577.07143 L 660.26543,570.28571 L 656.694,578.14285 L 658.12257,588.85714 L 652.05115,599.92857 L 645.97972,605.28571 L 642.40829,602.42857 L 640.26543,608.5 L 636.33686,609.21428 L 646.33686,623.85714 L 644.194,628.5 L 648.47972,630.64285 L 655.97972,626.71428 L 659.194,628.5 L 666.33686,636.35714 L 669.90829,636.71428 L 668.83686,646 L 674.194,653.5 L 668.47972,654.21428 L 660.97972,656.35714 L 655.26543,664.57143 L 659.55115,668.14285 L 652.76543,673.85714 L 648.83686,673.85714 L 649.55115,676.71428 L 640.97972,681.71428 L 639.194,692.78571 L 635.97972,702.78571 z "
         style="fill:#d5d5d5;fill-opacity:1;fill-rule:evenodd;stroke:#e9e9e9;stroke-width:2;stroke-linecap:butt;stroke-linejoin:miter;stroke-miterlimit:4;stroke-dasharray:none;stroke-opacity:1"
         id="path2268" />
      <path
         d="M 912.15759,541.55646 L 914.194,549.57143 L 922.05114,553.5 L 926.694,551.35714 L 927.76543,546 L 938.47971,548.85714 L 937.40829,553.5 L 939.194,554.57143 L 936.694,560.64285 L 942.40829,561.71428 L 948.12257,559.21428 L 947.05114,553.5 L 942.76543,552.42857 L 945.26543,548.85714 L 943.83686,545.28571 L 956.33686,540.64286 L 954.194,529.92857 L 949.90829,523.85714 L 957.76543,517.78571 L 960.97971,511 L 982.76543,501 L 979.55114,497.07143 L 986.694,482.42857 L 992.05114,482.07143 L 999.90829,488.85714 L 1012.4083,480.28571 L 1009.5511,471.71428 L 1001.3369,466.35714 L 995.62257,456.35714 L 1002.4083,446.35714 L 1000.9797,441.35714 L 1003.1226,435.28571 L 1001.3369,426.71428 L 993.83686,424.92857 L 994.194,414.21428 L 984.55114,408.5 L 980.26543,411 L 974.55114,407.42857 L 962.05114,411.71428 L 957.76543,401.71428 L 952.40829,399.57143 L 955.62257,394.92857 L 949.55114,392.78571 L 949.90829,386 L 955.97971,382.42857 L 962.40829,372.78571 L 967.05114,372.78571 L 967.05114,366.71428 L 974.194,358.85714 L 970.62257,356.71428 L 965.97971,358.85714 L 952.76543,356 L 951.694,360.28571 L 948.47971,358.85714 L 949.55114,354.21428 L 945.97971,351 L 950.97971,348.14286 L 944.55114,338.5 L 938.83686,334.92857 L 933.12257,320.28571 L 927.05114,318.14286 L 920.97971,320.28571 L 913.47971,316.71429 L 911.694,321.71429 L 910.26543,316 L 912.05114,310.28571 L 905.62257,304.92857 L 895.26543,306.71429 L 892.05114,302.78571 L 879.55114,308.5 L 873.47972,307.78571 L 878.12257,314.57143 L 871.33686,325.64286 L 864.55114,321.71429 L 853.12257,323.85714 L 847.76543,313.85714 L 839.55114,309.57143 L 834.194,312.07143 L 824.90829,311 L 817.76543,306.71429 L 823.12257,296 L 820.26543,290.64286 L 822.05114,287.78571 L 820.62257,285.64286 L 809.55114,287.78571 L 808.83686,295.64286 L 795.26543,300.64286 L 784.55114,305.28571 L 777.40829,307.42857 L 775.97972,314.21429 L 765.62257,321.35714 L 764.55114,318.14286 L 760.97972,314.92857 L 760.97972,318.85714 L 756.694,322.78571 L 749.194,322.78571 L 743.12257,317.42857 L 741.33686,312.07143 L 739.55114,313.85714 L 731.33686,313.5 L 721.694,320.64286 L 721.33686,325.64286 L 712.76543,319.92857 L 708.12257,326 L 703.12257,325.64286 L 702.40829,321.71429 L 699.90829,325.28571 L 685.26543,323.5 L 685.62257,327.78571 L 688.83686,332.42857 L 684.90829,334.92857 L 675.62257,332.78571 L 667.76543,326.71429 L 666.33686,331.35714 L 657.76543,329.21429 L 652.40829,323.5 L 652.40829,316.35714 L 645.62257,312.07143 L 644.55115,318.85714 L 639.90829,318.85714 L 639.90829,327.78571 L 643.83686,327.78571 L 645.26543,333.14286 L 639.55115,334.21428 L 640.62257,347.78571 L 637.76543,351 L 636.33686,358.14286 L 636.694,366.71428 L 641.33686,371.35714 L 641.33686,374.92857 L 648.83686,381 L 654.90829,394.21428 L 655.97972,402.07143 L 664.55115,403.14286 L 669.194,412.42857 L 678.83686,409.92857 L 675.26543,414.21428 L 677.76543,421 L 682.76543,418.85714 L 682.05114,423.5 L 686.694,428.5 L 688.83686,424.21428 L 692.76543,423.14286 L 703.47972,441 L 703.47972,446.71428 L 700.62257,448.5 L 703.83686,455.28571 L 716.694,456.71428 L 714.90829,464.57143 L 720.26543,469.92857 L 734.55114,459.92857 L 738.12257,463.85714 L 742.76543,461 L 745.01816,462.77196 L 754.82633,453.92572 L 752.04841,450.13765 L 748.0078,450.13765 L 748.26034,445.08689 L 753.3111,441.80389 L 764.42278,451.1478 L 775.53446,444.32927 L 778.56492,452.91557 L 786.89868,459.7341 L 796.24259,454.17826 L 808.36442,466.80517 L 818.46594,472.36101 L 832.60808,470.59324 L 832.60808,473.11862 L 829.57762,475.13893 L 831.09285,491.04883 L 839.42661,494.58436 L 830.84031,509.48411 L 838.92153,513.27218 L 842.20453,507.21127 L 853.3162,509.98919 L 854.5789,513.27218 L 855.58905,509.98919 L 872.00403,507.71635 L 874.52941,502.41304 L 865.1855,502.91812 L 870.99387,485.49299 L 865.94311,482.71507 L 867.96342,474.38131 L 885.64109,481.19984 L 888.41901,478.42192 L 894.73246,481.70492 L 900.03576,480.9473 L 900.03576,483.47268 L 908.36952,487.26076 L 910.38982,512.76711 L 909.12713,531.96001 L 914.68297,530.44478 L 912.15759,541.55646 z "
         style="fill:#d5d5d5;fill-opacity:1;fill-rule:evenodd;stroke:#e9e9e9;stroke-width:2;stroke-linecap:butt;stroke-linejoin:miter;stroke-miterlimit:4;stroke-dasharray:none;stroke-opacity:1"
         id="path2275" />
      <path
         d="M 667.76543,326.71429 L 666.33686,331.35714 L 657.76543,329.21429 L 652.40829,323.5 L 652.40829,316.35714 L 645.62257,312.07143 L 639.55115,305.64286 L 633.12257,306.35714 L 621.33686,315.28571 L 616.33686,312.78571 L 617.05115,304.21429 L 613.47972,302.42857 L 610.97972,306.35714 L 596.33686,307.07143 L 595.62257,302.07143 L 590.97972,302.07143 L 587.05115,293.5 L 574.55115,288.85714 L 566.33686,296.35714 L 553.12257,296.35714 L 546.694,292.42857 L 545.97972,298.5 L 544.55115,302.42857 L 549.55115,310.28571 L 545.62257,315.64286 L 535.97972,316.71429 L 533.83686,307.07143 L 528.12257,314.57143 L 517.76543,317.42857 L 516.33686,322.42857 L 508.83686,317.42857 L 508.47972,311 L 499.90829,311.35714 L 489.194,319.57143 L 476.694,321 L 477.05115,327.42857 L 470.62257,327.07143 L 466.694,320.28571 L 464.194,322.07143 L 465.62257,325.28571 L 461.33686,325.28571 L 455.26543,334.92857 L 447.40829,333.5 L 443.12258,338.14286 L 434.194,331.35714 L 428.47972,330.28571 L 419.90829,321.71429 L 415.26543,321.71429 L 415.26543,326.35714 L 410.26543,328.14286 L 402.05115,330.28571 L 397.76543,328.85714 L 390.62258,333.85714 L 370.62258,339.57142 L 357.76543,335.28571 L 349.90829,328.14285 L 351.33686,318.85714 L 356.06862,320.83813 L 363.64476,321.84828 L 366.17014,318.81782 L 362.12953,313.76706 L 362.12953,309.22137 L 366.17014,300.63508 L 370.71583,300.63508 L 369.70568,305.68584 L 377.28182,305.68584 L 378.79705,300.13 L 382.83766,304.67569 L 385.36304,299.62492 L 391.92903,299.11985 L 398.49502,286.99802 L 398.49502,278.9168 L 389.40365,278.9168 L 395.96964,263.25943 L 401.02041,262.75436 L 402.53563,256.69344 L 397.48487,250.12745 L 401.02041,250.12745 L 404.55594,238.51069 L 415.16254,244.06653 L 418.69807,234.97516 L 421.22346,232.44978 L 416.67777,223.86348 L 420.71838,214.77211 L 429.30468,218.30764 L 440.41635,209.21627 L 436.88082,204.67058 L 441.42651,202.1452 L 442.43666,195.57921 L 448.47972,195.28571 L 449.55115,192.42857 L 459.194,193.85714 L 465.26543,201.71429 L 472.40829,203.14286 L 477.40829,197.42857 L 476.33686,204.21429 L 480.97972,205.64286 L 480.62257,209.92857 L 488.83686,211.71429 L 497.05115,208.14286 L 500.97972,211.71429 L 506.694,205.64286 L 515.97972,212.78571 L 523.12257,208.14286 L 528.83686,213.14286 L 535.62257,212.78571 L 537.40829,204.92857 L 542.05115,204.92857 L 547.76543,201.35714 L 557.76543,199.92857 L 559.194,202.78571 L 562.40829,203.5 L 560.62257,211.35714 L 563.47972,206.71429 L 569.55115,198.85714 L 577.40829,200.64286 L 584.194,193.5 L 589.55115,199.57143 L 589.90829,205.64286 L 598.12257,205.64286 L 606.33686,201 L 614.194,199.21429 L 616.33686,194.21429 L 624.90829,194.21429 L 629.90829,189.92857 L 633.83686,194.92857 L 640.62257,193.85714 L 644.55115,201 L 651.33686,199.21429 L 654.90829,202.78571 L 660.62257,198.85714 L 659.55115,188.5 L 669.194,188.5 L 679.194,199.21429 L 675.62257,202.42857 L 672.05115,202.42857 L 669.55115,200.28571 L 671.694,210.28571 L 668.47972,210.28571 L 659.90829,216.35714 L 660.62257,223.85714 L 649.55115,231.35714 L 655.62257,243.5 L 659.55115,241.35714 L 663.47972,246 L 674.55115,241.35714 L 675.97972,245.28571 L 686.33686,245.28571 L 688.47972,252.42857 L 684.90829,261.71429 L 680.26543,259.21429 L 680.97972,263.14286 L 676.694,270.28571 L 674.55115,286 L 678.12257,286.35714 L 674.90829,294.92857 L 669.90829,294.21429 L 669.90829,306.35714 L 667.40829,314.21429 L 671.694,317.78571 L 667.76543,326.71429 z "
         style="fill:#d5d5d5;fill-opacity:1;fill-rule:evenodd;stroke:#e9e9e9;stroke-width:2;stroke-linecap:butt;stroke-linejoin:miter;stroke-miterlimit:4;stroke-dasharray:none;stroke-opacity:1"
         id="path2205" />
      <path
         d="M 529.90829,398.85714 L 528.83686,392.42857 L 538.12257,387.07143 L 548.12257,391 L 555.97972,387.07143 L 551.33686,383.14286 L 550.26543,372.78571 L 555.26543,371 L 563.47972,376.71428 L 564.55115,372.78571 L 570.26543,369.57143 L 573.83686,378.5 L 578.12257,374.57143 C 578.12257,374.57143 584.194,372.78571 584.194,374.21428 C 584.194,375.64286 586.694,378.85714 586.694,378.85714 L 590.62257,370.64286 L 594.55115,370.64286 L 613.12257,364.92857 L 616.33686,362.42857 L 622.40829,363.14286 L 625.97972,356 L 631.33686,354.57143 L 636.33686,358.14286 L 637.76543,351 L 640.62257,347.78571 L 639.55115,334.21428 L 645.26543,333.14286 L 643.83686,327.78571 L 639.90829,327.78571 L 639.90829,318.85714 L 644.55115,318.85714 L 645.62257,312.07143 L 639.55115,305.64286 L 633.12257,306.35714 L 621.33686,315.28571 L 616.33686,312.78571 L 617.05115,304.21429 L 613.47972,302.42857 L 610.97972,306.35714 L 596.33686,307.07143 L 595.62257,302.07143 L 590.97972,302.07143 L 587.05115,293.5 L 574.55115,288.85714 L 566.33686,296.35714 L 553.12257,296.35714 L 546.694,292.42857 L 545.97972,298.5 L 544.55115,302.42857 L 549.55115,310.28571 L 545.62257,315.64286 L 535.97972,316.71429 L 533.83686,307.07143 L 528.12257,314.57143 L 517.76543,317.42857 L 516.33686,322.42857 L 508.83686,317.42857 L 508.47972,311 L 499.90829,311.35714 L 489.194,319.57143 L 476.694,321 L 477.05115,327.42857 L 470.62257,327.07143 L 466.694,320.28571 L 464.194,322.07143 L 465.62257,325.28571 L 461.33686,325.28571 L 455.26543,334.92857 L 447.40829,333.5 L 443.12258,338.14286 L 434.194,331.35714 L 428.47972,330.28571 L 419.90829,321.71429 L 415.26543,321.71429 L 415.26543,326.35714 L 410.26543,328.14286 L 402.05115,330.28571 L 404.90829,338.85714 L 403.47972,346.71428 L 403.47972,359.57142 L 415.62258,363.14285 L 424.90829,348.85714 L 430.62258,353.14285 L 431.33686,363.85714 L 442.76543,368.14285 L 443.47972,375.99999 L 450.62258,377.42857 L 457.05115,384.57142 L 465.62258,388.14285 L 466.33686,398.14285 L 474.19401,389.57142 L 483.47972,389.57142 L 503.47972,393.14285 L 501.33686,403.85714 L 509.90829,398.85714 L 512.76543,404.57142 L 529.90829,398.85714 z "
         style="fill:#d5d5d5;fill-opacity:1;fill-rule:evenodd;stroke:#e9e9e9;stroke-width:2;stroke-linecap:butt;stroke-linejoin:miter;stroke-miterlimit:4;stroke-dasharray:none;stroke-opacity:1"
         id="path2229" />
      <path
         d="M 479.55115,307.78571 L 505.26543,294.92857 L 495.97972,288.14286 L 497.76543,284.21429 L 503.12257,284.21429 L 500.26543,271.35714 L 488.12257,264.21429 L 492.40829,259.57143 L 491.33686,252.42857 L 482.76543,246 L 476.694,253.14286 L 467.76543,249.21429 L 453.12257,259.57143 L 456.33686,276.35714 L 447.05115,277.78571 L 443.12258,286 L 450.97972,289.57143 L 458.47972,288.5 L 465.62257,303.5 L 476.33686,304.21429 L 479.55115,307.78571 z "
         style="fill:#d5d5d5;fill-opacity:1;fill-rule:evenodd;stroke:#e9e9e9;stroke-width:2;stroke-linecap:butt;stroke-linejoin:miter;stroke-miterlimit:4;stroke-dasharray:none;stroke-opacity:1"
         id="path2196" />
      <path
         d="M 873.47972,307.78571 L 872.76164,301.39269 L 866.19565,302.65538 L 862.66012,307.4536 L 860.13473,302.65538 L 852.55859,307.20107 L 847.76037,301.89777 L 845.48752,303.41299 L 841.95199,294.8267 L 833.87077,302.65538 L 833.61823,307.95868 L 828.31493,303.41299 L 817.76543,306.71429 L 824.90829,311 L 834.194,312.07143 L 839.55114,309.57143 L 847.76543,313.85714 L 853.12257,323.85714 L 864.55114,321.71429 L 871.33686,325.64286 L 878.12257,314.57143 L 873.47972,307.78571 z "
         style="fill:#d5d5d5;fill-opacity:1;fill-rule:evenodd;stroke:#e9e9e9;stroke-width:2;stroke-linecap:butt;stroke-linejoin:miter;stroke-miterlimit:4;stroke-dasharray:none;stroke-opacity:1"
         id="path2302" />
    </g>
  </g>
  <g
     inkscape:groupmode="layer"
     id="layer4"
     inkscape:label="rail"
     style="display:inline">
    <path
       style="fill:none;fill-rule:evenodd;stroke:#ff0000;stroke-width:2.5;stroke-linecap:butt;stroke-linejoin:miter;stroke-miterlimit:4;stroke-dasharray:none;stroke-opacity:1"
       d="M 14.868754,175.33997 L 35.998035,177.68767 L 50.866789,182.38306 L 66.518109,191.77385 L 78.256599,197.25182 L 87.64739,193.33899 L 102.51614,201.16465 L 122.08029,200.38208 L 142.42701,199.59951 L 147.90497,199.59951"
       id="path10608" />
    <path
       style="opacity:1;color:#000000;fill:none;fill-opacity:1;fill-rule:evenodd;stroke:#ff0000;stroke-width:2.5;stroke-linecap:butt;stroke-linejoin:miter;marker:none;marker-start:none;marker-mid:none;marker-end:none;stroke-miterlimit:4;stroke-dasharray:none;stroke-dashoffset:0;stroke-opacity:1;visibility:visible;display:inline;overflow:visible;enable-background:accumulate"
       d="M 100.16845,117.43009 L 111.90694,122.90805 L 124.42799,126.03831 L 136.16648,126.82088 L 151.03524,125.25575 L 164.33886,125.25575 L 172.94708,125.25575"
       id="path11579" />
    <path
       style="opacity:1;color:#000000;fill:none;fill-opacity:1;fill-rule:evenodd;stroke:#ff0000;stroke-width:2.5;stroke-linecap:butt;stroke-linejoin:miter;marker:none;marker-start:none;marker-mid:none;marker-end:none;stroke-miterlimit:4;stroke-dasharray:none;stroke-dashoffset:0;stroke-opacity:1;visibility:visible;display:inline;overflow:visible;enable-background:accumulate"
       d="M 152.60037,82.997182 L 167.46912,97.08337 L 173.72965,108.82186 L 172.16452,123.69061 L 176.07735,136.21167 L 185.46814,146.38503 L 201.11946,156.55838 L 220.68361,167.51431 L 243.37802,177.68767 L 277.02836,189.42616 L 290.33198,192.55642 L 309.11356,202.72978 L 326.33002,216.0334 L 349.02443,232.46729 L 365.45832,237.94525 L 402.23892,257.5094 L 432.75899,280.98638 L 444.49748,289.5946 L 457.8011,289.5946"
       id="path11581" />
    <path
       style="opacity:1;color:#000000;fill:none;fill-opacity:1;fill-rule:evenodd;stroke:#ff0000;stroke-width:2.5;stroke-linecap:butt;stroke-linejoin:miter;marker:none;marker-start:none;marker-mid:none;marker-end:none;stroke-miterlimit:4;stroke-dasharray:none;stroke-dashoffset:0;stroke-opacity:1;visibility:visible;display:inline;overflow:visible;enable-background:accumulate"
       d="M 178.42504,138.55937 L 172.16452,144.03733 L 159.64346,158.12352 L 147.90497,178.47023 L 145.55727,184.73076 L 147.12241,198.81695 L 151.8178,201.94721 L 153.38293,209.77287 L 164.33886,215.25083 L 182.33787,214.46827 L 194.07636,218.3811 L 204.24972,215.25083 L 218.33591,216.0334 L 234.7698,218.3811 L 247.29085,221.51136 L 259.02934,221.51136 L 273.11553,218.3811 L 284.07145,214.46827 L 293.46224,208.20774 L 295.80994,199.59951 L 299.72277,196.46925 L 304.41817,195.68668 L 311.46126,200.38208 L 316.15666,201.94721 L 337.28594,223.07649"
       id="path11583" />
    <path
       style="opacity:1;color:#000000;fill:none;fill-opacity:1;fill-rule:evenodd;stroke:#ff0000;stroke-width:2.5;stroke-linecap:butt;stroke-linejoin:miter;marker:none;marker-start:none;marker-mid:none;marker-end:none;stroke-miterlimit:4;stroke-dasharray:none;stroke-dashoffset:0;stroke-opacity:1;visibility:visible;display:inline;overflow:visible;enable-background:accumulate"
       d="M 46.953959,268.46532 L 64.170411,270.03045 L 73.561203,270.81302 L 82.169428,272.37815 L 89.212522,277.85611 L 97.038182,279.42124 L 107.99411,299.76796 L 119.7326,300.55053 L 134.60135,298.20283 L 142.42701,295.07256 L 150.25267,289.5946 L 157.29576,289.5946 L 168.25169,288.02947 L 175.29478,283.33407 L 182.33787,282.55151 L 187.81584,284.11664 L 196.42406,281.76894 L 195.6415,274.72585 L 202.68459,269.24789 L 211.29282,265.33506 L 224.59644,259.07453 L 231.63953,251.24887 L 240.24776,238.72781 L 249.63855,231.68472 L 254.33395,222.29393"
       id="path11585" />
    <path
       style="opacity:1;color:#000000;fill:none;fill-opacity:1;fill-rule:evenodd;stroke:#ff0000;stroke-width:2.5;stroke-linecap:butt;stroke-linejoin:miter;marker:none;marker-start:none;marker-mid:none;marker-end:none;stroke-miterlimit:4;stroke-dasharray:none;stroke-dashoffset:0;stroke-opacity:1;visibility:visible;display:inline;overflow:visible;enable-background:accumulate"
       d="M 178.42504,280.98638 L 180.77274,268.46532 L 183.90301,256.72683 L 183.12044,244.98834 L 176.07735,243.42321 L 166.68655,241.85808 L 156.5132,234.81498 L 151.03524,230.11959 L 147.90497,219.94623 L 147.90497,209.77287 L 150.25267,203.51234"
       id="path11587" />
    <path
       style="opacity:1;color:#000000;fill:none;fill-opacity:1;fill-rule:evenodd;stroke:#ff0000;stroke-width:2.5;stroke-linecap:butt;stroke-linejoin:miter;marker:none;marker-start:none;marker-mid:none;marker-end:none;stroke-miterlimit:4;stroke-dasharray:none;stroke-dashoffset:0;stroke-opacity:1;visibility:visible;display:inline;overflow:visible;enable-background:accumulate"
       d="M 172.94708,101.77877 L 176.07735,97.08337 L 183.12044,91.605408 L 180.77274,75.171518 L 189.38097,71.649971"
       id="path11589" />
    <path
       style="opacity:1;color:#000000;fill:none;fill-opacity:1;fill-rule:evenodd;stroke:#ff0000;stroke-width:2.5;stroke-linecap:butt;stroke-linejoin:miter;marker:none;marker-start:none;marker-mid:none;marker-end:none;stroke-miterlimit:4;stroke-dasharray:none;stroke-dashoffset:0;stroke-opacity:1;visibility:visible;display:inline;overflow:visible;enable-background:accumulate"
       d="M 314.59153,199.59951 L 309.89613,188.64359 L 313.02639,183.16563 L 322.41719,183.94819 L 336.50337,179.2528 L 355.28496,173.77484 L 370.15371,170.64457 L 385.02246,161.25378 L 412.41227,143.25476 L 424.93333,137.7768 L 443.71491,126.82088 L 457.8011,123.69061 L 469.53959,123.69061 L 479.71295,132.29884 L 487.53861,135.4291 L 489.10374,129.95114 L 493.01657,122.12548 L 489.88631,116.64752 L 485.97348,112.73469 L 490.66887,99.431068 L 489.88631,82.214616 L 494.5817,68.128429 L 496.9294,44.651449 L 495.36427,30.565261 L 493.01657,20.391903 L 493.01657,9.4359797"
       id="path11591" />
    <path
       style="opacity:1;color:#000000;fill:none;fill-opacity:1;fill-rule:evenodd;stroke:#ff0000;stroke-width:2.5;stroke-linecap:butt;stroke-linejoin:miter;marker:none;marker-start:none;marker-mid:none;marker-end:none;stroke-miterlimit:4;stroke-dasharray:none;stroke-dashoffset:0;stroke-opacity:1;visibility:visible;display:inline;overflow:visible;enable-background:accumulate"
       d="M 489.10374,95.518238 L 477.36525,92.387974 L 467.97446,90.822842 L 467.97446,75.954088"
       id="path11593" />
    <path
       style="opacity:1;color:#000000;fill:none;fill-opacity:1;fill-rule:evenodd;stroke:#ff0000;stroke-width:2.5;stroke-linecap:butt;stroke-linejoin:miter;marker:none;marker-start:none;marker-mid:none;marker-end:none;stroke-miterlimit:4;stroke-dasharray:none;stroke-dashoffset:0;stroke-opacity:1;visibility:visible;display:inline;overflow:visible;enable-background:accumulate"
       d="M 183.90301,283.33407 L 177.64248,288.81204 L 172.94708,295.07256 L 169.81682,299.76796 L 176.85991,311.50645 L 176.85991,318.54954 L 172.16452,324.02751 L 165.12142,326.3752 L 161.20859,327.15777"
       id="path11595" />
    <path
       style="opacity:1;color:#000000;fill:none;fill-opacity:1;fill-rule:evenodd;stroke:#ff0000;stroke-width:2.5;stroke-linecap:butt;stroke-linejoin:miter;marker:none;marker-start:none;marker-mid:none;marker-end:none;stroke-miterlimit:4;stroke-dasharray:none;stroke-dashoffset:0;stroke-opacity:1;visibility:visible;display:inline;overflow:visible;enable-background:accumulate"
       d="M 197.20663,280.20381 L 215.98821,280.20381 L 231.63953,280.20381 L 239.46519,282.55151 L 250.42112,284.11664 L 261.37704,277.85611 L 273.89809,274.72585 L 277.02836,270.81302 L 291.11455,266.11762 L 300.50534,262.98736 L 309.11356,263.76992 L 320.06949,270.03045 L 327.89515,270.81302 L 330.24285,263.76992 L 340.4162,256.72683 L 349.02443,252.03144 L 361.54549,252.03144 L 377.1968,251.24887 L 388.15273,252.03144 L 395.19582,257.5094 L 397.54352,262.98736 L 406.15175,264.55249 L 412.41227,264.55249 L 420.23793,264.55249 L 428.84616,266.11762 L 437.45439,266.11762 L 446.84518,266.11762 L 453.10571,264.55249 L 455.4534,262.98736 L 460.93137,262.98736 L 466.40933,262.98736 L 474.23499,263.76992"
       id="path11597" />
    <path
       style="opacity:1;color:#000000;fill:none;fill-opacity:1;fill-rule:evenodd;stroke:#ff0000;stroke-width:2.5;stroke-linecap:butt;stroke-linejoin:miter;marker:none;marker-start:none;marker-mid:none;marker-end:none;stroke-miterlimit:4;stroke-dasharray:none;stroke-dashoffset:0;stroke-opacity:1;visibility:visible;display:inline;overflow:visible;enable-background:accumulate"
       d="M 372.50141,169.86201 L 392.84812,186.29589 L 403.02148,191.77385 L 403.80405,198.03438 L 408.49944,208.20774 L 418.6728,219.16366 L 431.19386,227.77189 L 435.10669,233.24985 L 431.97642,241.07551 L 430.41129,247.33604 L 431.97642,252.814 L 439.01952,255.94426 L 446.84518,255.94426 L 453.88827,260.63966 L 454.67084,262.20479"
       id="path11599" />
    <path
       style="opacity:1;color:#000000;fill:none;fill-opacity:1;fill-rule:evenodd;stroke:#ff0000;stroke-width:2.5;stroke-linecap:butt;stroke-linejoin:miter;marker:none;marker-start:none;marker-mid:none;marker-end:none;stroke-miterlimit:4;stroke-dasharray:none;stroke-dashoffset:0;stroke-opacity:1;visibility:visible;display:inline;overflow:visible;enable-background:accumulate"
       d="M 330.24285,215.25083 L 339.63364,215.25083 L 346.67673,212.90314 L 361.54549,212.12057 L 374.84911,212.12057 L 385.80503,208.99031 L 396.76095,205.86004 L 404.58661,204.29491 L 413.19484,205.07748 L 427.28103,207.42517 L 446.84518,207.42517 L 466.40933,208.99031 L 483.62578,208.20774 L 498.49453,205.07748"
       id="path11601" />
    <path
       style="opacity:1;color:#000000;fill:none;fill-opacity:1;fill-rule:evenodd;stroke:#ff0000;stroke-width:2.5;stroke-linecap:butt;stroke-linejoin:miter;marker:none;marker-start:none;marker-mid:none;marker-end:none;stroke-miterlimit:4;stroke-dasharray:none;stroke-dashoffset:0;stroke-opacity:1;visibility:visible;display:inline;overflow:visible;enable-background:accumulate"
       d="M 416.3251,141.68963 L 431.19386,155.77582 L 431.97642,162.03635 L 435.88925,168.29687 L 447.62774,180.03536 L 458.58367,183.16563 L 470.32216,179.2528 L 471.88729,172.99227 L 464.8442,165.94918 L 462.4965,159.68865 L 463.27906,145.60246 L 465.62676,139.34193 L 471.88729,134.64654 L 475.80012,129.16858"
       id="path11603" />
    <path
       style="opacity:1;color:#000000;fill:none;fill-opacity:1;fill-rule:evenodd;stroke:#ff0000;stroke-width:2.5;stroke-linecap:butt;stroke-linejoin:miter;marker:none;marker-start:none;marker-mid:none;marker-end:none;stroke-miterlimit:4;stroke-dasharray:none;stroke-dashoffset:0;stroke-opacity:1;visibility:visible;display:inline;overflow:visible;enable-background:accumulate"
       d="M 501.6248,158.90608 L 511.79815,158.90608 L 521.97151,155.77582 L 543.88336,147.95016 L 554.83928,147.16759 L 572.05574,144.03733 L 586.92449,143.25476 L 593.96758,133.86397 L 604.14094,119.77778 L 610.40147,107.25673 L 619.79226,76.736654"
       id="path11605" />
    <path
       style="opacity:1;color:#000000;fill:none;fill-opacity:1;fill-rule:evenodd;stroke:#ff0000;stroke-width:2.5;stroke-linecap:butt;stroke-linejoin:miter;marker:none;marker-start:none;marker-mid:none;marker-end:none;stroke-miterlimit:4;stroke-dasharray:none;stroke-dashoffset:0;stroke-opacity:1;visibility:visible;display:inline;overflow:visible;enable-background:accumulate"
       d="M 519.62381,157.34095 L 507.88532,147.16759 L 496.9294,137.7768 L 488.32117,128.38601 L 483.62578,122.90805"
       id="path11607" />
    <path
       style="opacity:1;color:#000000;fill:none;fill-opacity:1;fill-rule:evenodd;stroke:#ff0000;stroke-width:2.5;stroke-linecap:butt;stroke-linejoin:miter;marker:none;marker-start:none;marker-mid:none;marker-end:none;stroke-miterlimit:4;stroke-dasharray:none;stroke-dashoffset:0;stroke-opacity:1;visibility:visible;display:inline;overflow:visible;enable-background:accumulate"
       d="M 531.3623,152.64555 L 550.14389,173.77484 L 568.14291,190.20872 L 584.57679,201.94721 L 593.96758,211.338"
       id="path11609" />
    <path
       style="opacity:1;color:#000000;fill:none;fill-opacity:1;fill-rule:evenodd;stroke:#ff0000;stroke-width:2.5;stroke-linecap:butt;stroke-linejoin:miter;marker:none;marker-start:none;marker-mid:none;marker-end:none;stroke-miterlimit:4;stroke-dasharray:none;stroke-dashoffset:0;stroke-opacity:1;visibility:visible;display:inline;overflow:visible;enable-background:accumulate"
       d="M 489.10374,132.29884 L 497.71197,152.64555 L 504.75506,178.47023 L 500.05966,203.51234 L 500.05966,218.3811 L 497.71197,230.11959 L 486.75604,247.33604 L 481.27808,254.37913 L 475.01755,262.98736 L 467.97446,263.76992 L 461.71393,270.81302 L 458.58367,277.85611 L 460.93137,283.33407 L 447.62774,312.28902 L 432.75899,337.33113 L 419.45537,363.93837 L 411.62971,374.89429 L 402.23892,385.85022 L 387.37016,392.89331 L 377.1968,399.15384 L 369.37114,403.06667 L 354.50239,403.84924"
       id="path11611" />
    <path
       style="opacity:1;color:#000000;fill:none;fill-opacity:1;fill-rule:evenodd;stroke:#ff0000;stroke-width:2.5;stroke-linecap:butt;stroke-linejoin:miter;marker:none;marker-start:none;marker-mid:none;marker-end:none;stroke-miterlimit:4;stroke-dasharray:none;stroke-dashoffset:0;stroke-opacity:1;visibility:visible;display:inline;overflow:visible;enable-background:accumulate"
       d="M 359.19779,211.338 L 367.02345,221.51136 L 374.06654,226.20676"
       id="path11613" />
    <path
       style="opacity:1;color:#000000;fill:none;fill-opacity:1;fill-rule:evenodd;stroke:#ff0000;stroke-width:2.5;stroke-linecap:butt;stroke-linejoin:miter;marker:none;marker-start:none;marker-mid:none;marker-end:none;stroke-miterlimit:4;stroke-dasharray:none;stroke-dashoffset:0;stroke-opacity:1;visibility:visible;display:inline;overflow:visible;enable-background:accumulate"
       d="M 381.8922,231.68472 L 390.50043,241.85808 L 392.06556,252.03144"
       id="path11615" />
    <path
       style="opacity:1;color:#000000;fill:none;fill-opacity:1;fill-rule:evenodd;stroke:#ff0000;stroke-width:2.5;stroke-linecap:butt;stroke-linejoin:miter;marker:none;marker-start:none;marker-mid:none;marker-end:none;stroke-miterlimit:4;stroke-dasharray:none;stroke-dashoffset:0;stroke-opacity:1;visibility:visible;display:inline;overflow:visible;enable-background:accumulate"
       d="M 395.97839,262.20479 L 390.50043,271.59558 L 380.32707,280.20381 L 375.63167,286.46434 L 369.37114,291.15973 L 356.85009,293.50743 L 347.4593,298.20283 L 346.67673,302.89822 L 343.54647,310.72388"
       id="path11617" />
    <path
       style="opacity:1;color:#000000;fill:none;fill-opacity:1;fill-rule:evenodd;stroke:#ff0000;stroke-width:2.5;stroke-linecap:butt;stroke-linejoin:miter;marker:none;marker-start:none;marker-mid:none;marker-end:none;stroke-miterlimit:4;stroke-dasharray:none;stroke-dashoffset:0;stroke-opacity:1;visibility:visible;display:inline;overflow:visible;enable-background:accumulate"
       d="M 386.5876,336.54856 L 377.1968,324.02751 L 364.67575,316.98441 L 354.50239,313.85415 L 348.24186,313.85415 L 344.32903,311.50645 L 338.06851,312.28902 L 338.06851,321.67981 L 332.59054,332.63573 L 330.24285,342.80909 L 323.98232,347.50449 L 320.06949,355.33015 L 316.93922,363.1558 L 317.72179,367.06863 L 323.19975,373.32916 L 334.15568,378.02456 L 345.89417,384.28509 L 347.4593,391.32818 L 351.37213,395.24101 L 352.15469,406.19693"
       id="path11619" />
    <path
       style="opacity:1;color:#000000;fill:none;fill-opacity:1;fill-rule:evenodd;stroke:#ff0000;stroke-width:2.5;stroke-linecap:butt;stroke-linejoin:miter;marker:none;marker-start:none;marker-mid:none;marker-end:none;stroke-miterlimit:4;stroke-dasharray:none;stroke-dashoffset:0;stroke-opacity:1;visibility:visible;display:inline;overflow:visible;enable-background:accumulate"
       d="M 169.81682,319.33211 L 182.33787,331.85317 L 194.07636,347.50449 L 207.37999,364.72094 L 223.03131,373.32916 L 227.7267,368.63377 L 236.33493,370.1989 L 244.16059,368.63377 L 251.20368,370.1989 L 255.11651,378.02456 L 262.1596,381.15482 L 271.5504,376.45943 L 294.24481,370.98146 L 305.9833,369.41633 L 317.72179,366.28607"
       id="path11621" />
    <path
       style="opacity:1;color:#000000;fill:none;fill-opacity:1;fill-rule:evenodd;stroke:#ff0000;stroke-width:2.5;stroke-linecap:butt;stroke-linejoin:miter;marker:none;marker-start:none;marker-mid:none;marker-end:none;stroke-miterlimit:4;stroke-dasharray:none;stroke-dashoffset:0;stroke-opacity:1;visibility:visible;display:inline;overflow:visible;enable-background:accumulate"
       d="M 223.81387,374.11173 L 230.85697,383.50252 L 234.7698,394.45844 L 243.37802,396.80614 L 252.76881,406.19693 L 262.94217,411.6749 L 273.89809,412.45746 L 279.37606,409.3272 L 287.20172,414.80516 L 298.15764,426.54365 L 306.76587,434.36931 L 313.80896,434.36931 L 323.98232,442.97754"
       id="path11623" />
    <path
       style="opacity:1;color:#000000;fill:none;fill-opacity:1;fill-rule:evenodd;stroke:#ff0000;stroke-width:2.5;stroke-linecap:butt;stroke-linejoin:miter;marker:none;marker-start:none;marker-mid:none;marker-end:none;stroke-miterlimit:4;stroke-dasharray:none;stroke-dashoffset:0;stroke-opacity:1;visibility:visible;display:inline;overflow:visible;enable-background:accumulate"
       d="M 286.41915,456.28116 L 302.85304,452.36833 L 314.59153,445.32523 L 327.11258,443.7601 L 338.85107,438.28214 L 352.93726,438.28214 L 359.19779,436.71701 L 360.76292,428.89135 L 353.71983,424.97852 L 346.67673,421.06569 L 345.89417,414.80516 L 350.58956,407.76207 L 352.15469,401.50154"
       id="path11625" />
    <path
       style="opacity:1;color:#000000;fill:none;fill-opacity:1;fill-rule:evenodd;stroke:#ff0000;stroke-width:2.5;stroke-linecap:butt;stroke-linejoin:miter;marker:none;marker-start:none;marker-mid:none;marker-end:none;stroke-miterlimit:4;stroke-dasharray:none;stroke-dashoffset:0;stroke-opacity:1;visibility:visible;display:inline;overflow:visible;enable-background:accumulate"
       d="M 486.75604,254.37913 L 504.75506,261.42223 L 514.92842,261.42223 L 517.27612,256.72683 L 534.49257,254.37913 L 547.79619,252.814 L 559.53468,252.03144"
       id="path11627" />
    <path
       style="opacity:1;color:#000000;fill:none;fill-opacity:1;fill-rule:evenodd;stroke:#ff0000;stroke-width:2.5;stroke-linecap:butt;stroke-linejoin:miter;marker:none;marker-start:none;marker-mid:none;marker-end:none;stroke-miterlimit:4;stroke-dasharray:none;stroke-dashoffset:0;stroke-opacity:1;visibility:visible;display:inline;overflow:visible;enable-background:accumulate"
       d="M 502.40736,202.72978 L 517.27612,214.46827 L 529.01461,219.16366 L 539.97053,229.33702 L 544.66593,231.68472 L 557.96955,243.42321 L 560.31725,252.03144"
       id="path11629" />
    <path
       style="opacity:1;color:#000000;fill:none;fill-opacity:1;fill-rule:evenodd;stroke:#ff0000;stroke-width:2.5;stroke-linecap:butt;stroke-linejoin:miter;marker:none;marker-start:none;marker-mid:none;marker-end:none;stroke-miterlimit:4;stroke-dasharray:none;stroke-dashoffset:0;stroke-opacity:1;visibility:visible;display:inline;overflow:visible;enable-background:accumulate"
       d="M 564.23008,269.24789 L 562.66494,251.24887 L 564.23008,236.38012 L 571.27317,229.33702 L 584.57679,224.64163 L 590.83732,218.3811 L 593.96758,212.90314 L 605.70607,209.77287 L 615.87943,208.20774 L 629.18305,208.20774 L 639.35641,214.46827 L 648.7472,214.46827 L 660.48569,216.0334 L 674.57188,222.29393 L 688.65807,227.77189 L 701.17912,230.90215 L 714.48274,235.59755 L 723.87354,242.64064 L 733.26433,241.07551 L 755.17618,252.03144 L 764.56697,257.5094 L 768.4798,263.76992 L 766.1321,269.24789 L 766.91467,278.63868 L 767.69723,284.11664 L 761.4367,291.15973 L 760.65414,301.33309 L 766.1321,305.24592 L 777.08802,312.28902 L 781.78342,314.63671 L 793.52191,312.28902 L 801.34757,306.02849 L 808.39066,312.28902 L 818.56402,313.07158 L 824.82455,316.98441 L 836.56304,313.85415 L 845.17126,312.28902 L 855.34462,316.98441 L 864.73541,315.41928 L 872.56107,316.98441 L 882.73443,323.24494 L 884.29956,324.81007"
       id="path11631" />
    <path
       style="opacity:1;color:#000000;fill:none;fill-opacity:1;fill-rule:evenodd;stroke:#ff0000;stroke-width:2.5;stroke-linecap:butt;stroke-linejoin:miter;marker:none;marker-start:none;marker-mid:none;marker-end:none;stroke-miterlimit:4;stroke-dasharray:none;stroke-dashoffset:0;stroke-opacity:1;visibility:visible;display:inline;overflow:visible;enable-background:accumulate"
       d="M 717.61301,235.59755 L 726.22123,231.68472 L 735.61203,230.11959 L 742.65512,228.55446 L 757.52387,224.64163 L 766.1321,224.64163"
       id="path11633" />
    <path
       style="opacity:1;color:#000000;fill:none;fill-opacity:1;fill-rule:evenodd;stroke:#ff0000;stroke-width:2.5;stroke-linecap:butt;stroke-linejoin:miter;marker:none;marker-start:none;marker-mid:none;marker-end:none;stroke-miterlimit:4;stroke-dasharray:none;stroke-dashoffset:0;stroke-opacity:1;visibility:visible;display:inline;overflow:visible;enable-background:accumulate"
       d="M 723.09097,243.42321 L 716.83044,252.814 L 701.96169,268.46532 L 690.2232,278.63868 L 683.96267,288.02947 L 673.00675,291.9423 L 665.18109,304.46336 L 658.92056,315.41928"
       id="path11635" />
    <path
       style="opacity:1;color:#000000;fill:none;fill-opacity:1;fill-rule:evenodd;stroke:#ff0000;stroke-width:2.5;stroke-linecap:butt;stroke-linejoin:miter;marker:none;marker-start:none;marker-mid:none;marker-end:none;stroke-miterlimit:4;stroke-dasharray:none;stroke-dashoffset:0;stroke-opacity:1;visibility:visible;display:inline;overflow:visible;enable-background:accumulate"
       d="M 916.38477,309.15875 L 910.90681,313.85415 L 908.55911,320.89724 L 907.77654,327.15777 L 907.77654,334.20086 L 897.60318,343.59166 L 892.90779,347.50449 L 886.64726,350.63475 L 882.73443,361.59067 L 881.1693,370.1989 L 867.86568,374.89429 L 857.69232,380.37226 L 851.43179,387.41535 L 841.25843,389.76305 L 837.3456,386.63278 L 829.51994,386.63278 L 820.91172,388.19792 L 813.08606,381.15482 L 809.17323,380.37226 L 802.9127,374.89429 L 800.565,367.8512 L 791.17421,367.06863 L 783.34855,362.37324 L 778.65316,351.41732 L 765.34953,346.72192 L 755.95874,342.02652 L 741.08999,338.89626 L 729.3515,333.4183 L 709.78735,333.4183 L 682.39754,337.33113 L 665.18109,331.85317 L 647.96464,327.94034 L 637.00871,328.7229 L 628.40049,319.33211 L 617.44456,306.02849 L 601.01068,291.15973 L 585.35936,285.68177 L 575.96856,283.33407 L 564.23008,270.81302 L 560.31725,257.5094 L 558.75211,250.4663"
       id="path11637" />
    <path
       style="opacity:1;color:#000000;fill:none;fill-opacity:1;fill-rule:evenodd;stroke:#ff0000;stroke-width:2.5;stroke-linecap:butt;stroke-linejoin:miter;marker:none;marker-start:none;marker-mid:none;marker-end:none;stroke-miterlimit:4;stroke-dasharray:none;stroke-dashoffset:0;stroke-opacity:1;visibility:visible;display:inline;overflow:visible;enable-background:accumulate"
       d="M 895.25549,348.28705 L 902.29858,352.19988 L 906.99398,358.46041"
       id="path11639" />
    <path
       style="opacity:1;color:#000000;fill:none;fill-opacity:1;fill-rule:evenodd;stroke:#ff0000;stroke-width:2.5;stroke-linecap:butt;stroke-linejoin:miter;marker:none;marker-start:none;marker-mid:none;marker-end:none;stroke-miterlimit:4;stroke-dasharray:none;stroke-dashoffset:0;stroke-opacity:1;visibility:visible;display:inline;overflow:visible;enable-background:accumulate"
       d="M 848.30153,387.41535 L 848.30153,399.15384 L 852.21436,401.50154 L 855.34462,411.6749 L 853.77949,418.71799 L 866.30055,421.06569"
       id="path11641" />
    <path
       style="opacity:1;color:#000000;fill:none;fill-opacity:1;fill-rule:evenodd;stroke:#ff0000;stroke-width:2.5;stroke-linecap:butt;stroke-linejoin:miter;marker:none;marker-start:none;marker-mid:none;marker-end:none;stroke-miterlimit:4;stroke-dasharray:none;stroke-dashoffset:0;stroke-opacity:1;visibility:visible;display:inline;overflow:visible;enable-background:accumulate"
       d="M 775.52289,312.28902 L 775.52289,325.59264 L 782.56599,334.20086 L 790.39164,334.20086 L 795.08704,342.02652 L 790.39164,349.85218 L 781.00086,356.89528"
       id="path11643"
       sodipodi:nodetypes="ccccccc" />
    <path
       style="opacity:1;color:#000000;fill:none;fill-opacity:1;fill-rule:evenodd;stroke:#ff0000;stroke-width:2.5;stroke-linecap:butt;stroke-linejoin:miter;marker:none;marker-start:none;marker-mid:none;marker-end:none;stroke-miterlimit:4;stroke-dasharray:none;stroke-dashoffset:0;stroke-opacity:1;visibility:visible;display:inline;overflow:visible;enable-background:accumulate"
       d="M 821.69428,288.02947 L 821.69428,301.33309 L 817.78145,308.37619 L 817.78145,317.76698 L 813.86862,325.59264 L 812.30349,334.98343 L 808.39066,339.67883 L 807.6081,345.15679 L 804.47783,352.19988 L 795.86961,353.76501 L 790.39164,356.89528 L 790.39164,365.5035 L 788.82651,374.11173 L 793.52191,382.71995 L 786.47881,385.85022 L 788.82651,393.67588 L 791.17421,399.15384 L 787.26138,406.19693 L 785.69625,410.10976 L 791.17421,413.24003 L 791.17421,422.63082 L 787.26138,431.23905 L 785.69625,436.71701 L 777.87059,440.62984 L 773.95776,450.8032 L 777.08802,459.41142 L 770.8275,469.58478 L 771.61006,480.5407 L 753.61104,505.58281 L 743.43769,522.79927 L 727.78637,532.97262 L 720.74327,539.23315 L 719.96071,548.62394 L 710.56991,555.66704 L 711.35248,565.8404 L 718.39557,578.36145 L 710.56991,590.09994 L 709.78735,601.05586 L 713.70018,614.35949 L 719.17814,619.05488 L 724.6561,628.44567 L 727.0038,640.18416 L 727.78637,648.79239 L 747.35052,661.31345 L 750.48078,673.05193 L 756.74131,678.5299 L 763.00184,687.13812 L 763.00184,694.96378 L 774.74033,715.3105 L 783.34855,733.30952 L 788.04395,737.22235 L 809.17323,738.78748 L 825.60711,748.17827 L 839.6933,748.96084 L 851.43179,749.7434 L 863.17028,759.13419 L 865.51798,769.30755 L 877.25647,766.95985 L 884.29956,766.95985 L 892.12522,766.95985 L 898.38575,771.65525 L 908.55911,771.65525 L 915.6022,775.56808"
       id="path11645" />
    <path
       style="opacity:1;color:#000000;fill:none;fill-opacity:1;fill-rule:evenodd;stroke:#ff0000;stroke-width:2.5;stroke-linecap:butt;stroke-linejoin:miter;marker:none;marker-start:none;marker-mid:none;marker-end:none;stroke-miterlimit:4;stroke-dasharray:none;stroke-dashoffset:0;stroke-opacity:1;visibility:visible;display:inline;overflow:visible;enable-background:accumulate"
       d="M 866.30055,768.52499 L 864.73541,777.13321 L 862.38772,785.74144 L 864.73541,795.91479 L 865.51798,802.95789 L 863.17028,810.00098"
       id="path11647" />
    <path
       style="opacity:1;color:#000000;fill:none;fill-opacity:1;fill-rule:evenodd;stroke:#ff0000;stroke-width:2.5;stroke-linecap:butt;stroke-linejoin:miter;marker:none;marker-start:none;marker-mid:none;marker-end:none;stroke-miterlimit:4;stroke-dasharray:none;stroke-dashoffset:0;stroke-opacity:1;visibility:visible;display:inline;overflow:visible;enable-background:accumulate"
       d="M 877.25647,805.30559 L 863.17028,804.52302 L 853.77949,799.04506 L 848.30153,800.61019 L 841.25843,803.74045 L 824.04198,802.95789 L 810.73836,806.08815 L 798.99987,809.21842 L 784.13112,803.74045 L 773.17519,800.61019 L 770.8275,793.5671 L 769.26236,783.39374 L 770.04493,769.30755 L 759.87157,760.69933 L 742.65512,754.4388 L 728.56893,744.26544 L 724.6561,739.57004 L 717.61301,719.22333 L 727.0038,709.83254 L 724.6561,699.65918 L 714.48274,691.05095 L 712.91761,682.44273 L 691.78833,671.4868 L 676.91958,669.92167 L 660.48569,659.74831 L 639.35641,640.96673 L 633.09588,631.57594 L 637.79128,617.48975 L 636.22615,608.88152 L 637.79128,603.40356 L 631.53075,597.14303 L 635.44358,589.31737 L 643.26924,579.14402 L 639.35641,576.79632 L 629.18305,576.79632 L 628.40049,572.88349 L 632.31332,562.71013 L 641.70411,550.18908 L 640.13898,543.14598 L 636.22615,540.01572 L 630.74818,542.36342 L 629.96562,533.75519 L 616.662,534.53776 L 612.74917,531.40749 L 617.44456,521.23413 L 612.74917,512.62591 L 610.40147,507.93051 L 611.18403,495.40946 L 608.05377,491.49663 L 605.70607,484.45353 L 601.01068,479.75814 L 605.70607,475.84531 L 607.2712,464.88938 L 607.2712,452.36833 L 604.14094,443.7601 L 604.92351,433.58674"
       id="path11649" />
    <path
       style="opacity:1;color:#000000;fill:none;fill-opacity:1;fill-rule:evenodd;stroke:#ff0000;stroke-width:2.5;stroke-linecap:butt;stroke-linejoin:miter;marker:none;marker-start:none;marker-mid:none;marker-end:none;stroke-miterlimit:4;stroke-dasharray:none;stroke-dashoffset:0;stroke-opacity:1;visibility:visible;display:inline;overflow:visible;enable-background:accumulate"
       d="M 722.3084,537.66802 L 716.83044,527.49466 L 705.87452,520.45157 L 692.5709,522.79927 L 688.65807,518.10387 L 682.39754,514.19104 L 669.87648,514.19104 L 665.18109,510.27821 L 662.05082,500.88742 L 655.7903,495.40946 L 652.66003,478.97557 L 646.3995,473.49761 L 636.22615,466.45451 L 635.44358,460.97655 L 628.40049,459.41142 L 619.79226,450.8032 L 613.53173,448.4555 L 606.48864,446.1078"
       id="path11651" />
    <path
       style="opacity:1;color:#000000;fill:none;fill-opacity:1;fill-rule:evenodd;stroke:#ff0000;stroke-width:2.5;stroke-linecap:butt;stroke-linejoin:miter;marker:none;marker-start:none;marker-mid:none;marker-end:none;stroke-miterlimit:4;stroke-dasharray:none;stroke-dashoffset:0;stroke-opacity:1;visibility:visible;display:inline;overflow:visible;enable-background:accumulate"
       d="M 568.14291,273.94328 L 579.88139,272.37815 L 592.40245,281.76894 L 599.44554,281.76894 L 613.53173,288.81204 L 619.79226,291.9423 L 629.96562,299.76796 L 637.79128,310.72388 L 649.52977,309.94132 L 658.13799,316.20185 L 666.74622,317.76698 L 679.26728,322.46237 L 691.00576,331.85317 L 704.30939,338.89626 L 721.52584,344.37422 L 736.39459,346.72192 L 750.48078,347.50449 L 760.65414,349.06962 L 773.17519,349.06962"
       id="path11653" />
    <path
       style="opacity:1;color:#000000;fill:none;fill-opacity:1;fill-rule:evenodd;stroke:#ff0000;stroke-width:2.5;stroke-linecap:butt;stroke-linejoin:miter;marker:none;marker-start:none;marker-mid:none;marker-end:none;stroke-miterlimit:4;stroke-dasharray:none;stroke-dashoffset:0;stroke-opacity:1;visibility:visible;display:inline;overflow:visible;enable-background:accumulate"
       d="M 788.82651,367.06863 L 775.52289,362.37324 L 763.7844,357.67784 L 759.08901,352.98245 L 755.95874,350.63475"
       id="path11655" />
    <path
       style="opacity:1;color:#000000;fill:none;fill-opacity:1;fill-rule:evenodd;stroke:#ff0000;stroke-width:2.5;stroke-linecap:butt;stroke-linejoin:miter;marker:none;marker-start:none;marker-mid:none;marker-end:none;stroke-miterlimit:4;stroke-dasharray:none;stroke-dashoffset:0;stroke-opacity:1;visibility:visible;display:inline;overflow:visible;enable-background:accumulate"
       d="M 604.92351,432.80418 L 615.87943,429.67391 L 624.48766,424.19595 L 637.79128,431.23905 L 643.26924,422.63082 L 653.4426,418.71799 L 668.31135,418.71799 L 673.78931,413.24003 L 683.96267,410.89233 L 694.13603,406.19693 L 703.52682,403.84924 L 710.56991,401.50154 L 719.96071,400.71897 L 725.43867,394.45844 L 737.17716,383.50252 L 748.91565,376.45943 L 755.95874,371.76403 L 761.4367,372.5466 L 766.1321,370.98146 L 773.17519,368.63377 L 788.82651,368.63377 L 790.39164,366.28607"
       id="path11657" />
    <path
       style="opacity:1;color:#000000;fill:none;fill-opacity:1;fill-rule:evenodd;stroke:#ff0000;stroke-width:2.5;stroke-linecap:butt;stroke-linejoin:miter;marker:none;marker-start:none;marker-mid:none;marker-end:none;stroke-miterlimit:4;stroke-dasharray:none;stroke-dashoffset:0;stroke-opacity:1;visibility:visible;display:inline;overflow:visible;enable-background:accumulate"
       d="M 561.88238,266.11762 L 550.92645,273.94328 L 546.23106,284.11664 L 546.23106,299.76796 L 547.01362,310.72388 L 548.57876,317.76698 L 539.18796,327.15777 L 527.44947,338.11369 L 525.10178,345.15679 L 525.10178,356.11271 L 515.71098,372.5466 L 515.71098,383.50252 L 523.53664,392.89331 L 521.18895,401.50154 L 524.31921,415.58773 L 517.27612,424.19595 L 506.32019,433.58674 L 496.9294,445.32523 L 485.97348,453.93346 L 478.93038,458.62886 L 469.53959,464.88938 L 461.71393,468.01965 L 457.01854,471.93248 L 457.8011,478.193 L 452.32314,483.67097 L 445.28005,481.32327 L 439.01952,487.5838 L 431.19386,493.84432 L 415.54254,496.19202 L 404.58661,501.66998 L 383.45733,509.49564"
       id="path11659" />
    <path
       style="opacity:1;color:#000000;fill:none;fill-opacity:1;fill-rule:evenodd;stroke:#ff0000;stroke-width:2.5;stroke-linecap:butt;stroke-linejoin:miter;marker:none;marker-start:none;marker-mid:none;marker-end:none;stroke-miterlimit:4;stroke-dasharray:none;stroke-dashoffset:0;stroke-opacity:1;visibility:visible;display:inline;overflow:visible;enable-background:accumulate"
       d="M 460.1488,288.81204 L 461.71393,298.98539 L 470.32216,311.50645 L 476.58268,327.15777 L 475.80012,336.54856 L 472.66985,352.19988 L 469.53959,363.93837 L 464.8442,376.45943 L 467.19189,385.85022 L 470.32216,395.24101 L 470.32216,406.9795 L 470.32216,414.80516"
       id="path11661" />
    <path
       style="opacity:1;color:#000000;fill:none;fill-opacity:1;fill-rule:evenodd;stroke:#ff0000;stroke-width:2.5;stroke-linecap:butt;stroke-linejoin:miter;marker:none;marker-start:none;marker-mid:none;marker-end:none;stroke-miterlimit:4;stroke-dasharray:none;stroke-dashoffset:0;stroke-opacity:1;visibility:visible;display:inline;overflow:visible;enable-background:accumulate"
       d="M 408.49944,381.93739 L 420.23793,398.37127 L 435.10669,416.37029 L 446.84518,422.63082 L 457.8011,425.76108 L 464.06163,418.71799 L 470.32216,416.37029 L 478.93038,421.84825 L 476.58268,429.67391 L 478.14782,440.62984 L 477.36525,448.4555 L 483.62578,453.93346 L 500.05966,462.54168 L 509.45046,456.28116 L 519.62381,449.23806 L 529.79717,448.4555 L 533.71,440.62984"
       id="path11663" />
    <path
       style="opacity:1;color:#000000;fill:none;fill-opacity:1;fill-rule:evenodd;stroke:#ff0000;stroke-width:2.5;stroke-linecap:butt;stroke-linejoin:miter;marker:none;marker-start:none;marker-mid:none;marker-end:none;stroke-miterlimit:4;stroke-dasharray:none;stroke-dashoffset:0;stroke-opacity:1;visibility:visible;display:inline;overflow:visible;enable-background:accumulate"
       d="M 511.79815,428.89135 L 517.27612,439.84727 L 527.44947,440.62984 L 535.27513,440.62984 L 548.57876,439.06471 L 557.18698,437.49957 L 565.01264,442.97754 L 576.75113,442.19497 L 583.79422,437.49957 L 589.27219,435.93444 L 593.96758,435.93444 L 600.22811,430.45648"
       id="path11665" />
    <path
       style="opacity:1;color:#000000;fill:none;fill-opacity:1;fill-rule:evenodd;stroke:#ff0000;stroke-width:2.5;stroke-linecap:butt;stroke-linejoin:miter;marker:none;marker-start:none;marker-mid:none;marker-end:none;stroke-miterlimit:4;stroke-dasharray:none;stroke-dashoffset:0;stroke-opacity:1;visibility:visible;display:inline;overflow:visible;enable-background:accumulate"
       d="M 601.01068,430.45648 L 593.96758,425.76108 L 571.27317,403.84924 L 550.14389,383.50252 L 534.49257,358.46041 L 525.88434,347.50449 L 519.62381,337.33113 L 511.01559,327.94034 L 500.84223,313.85415 L 485.97348,301.33309 L 480.49551,288.81204 L 475.01755,280.20381 L 482.84321,270.81302 L 483.62578,261.42223 L 489.88631,244.20578"
       id="path11667" />
    <path
       style="opacity:1;color:#000000;fill:none;fill-opacity:1;fill-rule:evenodd;stroke:#ff0000;stroke-width:2.5;stroke-linecap:butt;stroke-linejoin:miter;marker:none;marker-start:none;marker-mid:none;marker-end:none;stroke-miterlimit:4;stroke-dasharray:none;stroke-dashoffset:0;stroke-opacity:1;visibility:visible;display:inline;overflow:visible;enable-background:accumulate"
       d="M 553.27415,438.28214 L 551.70902,417.93542 L 553.27415,410.89233 L 558.75212,391.32818"
       id="path11669"
       sodipodi:nodetypes="cccc" />
    <path
       style="opacity:1;color:#000000;fill:none;fill-opacity:1;fill-rule:evenodd;stroke:#ff0000;stroke-width:2.5;stroke-linecap:butt;stroke-linejoin:miter;marker:none;marker-start:none;marker-mid:none;marker-end:none;stroke-miterlimit:4;stroke-dasharray:none;stroke-dashoffset:0;stroke-opacity:1;visibility:visible;display:inline;overflow:visible;enable-background:accumulate"
       d="M 534.49257,356.11271 L 537.62283,351.41732"
       id="path11671" />
    <path
       style="opacity:1;color:#000000;fill:none;fill-opacity:1;fill-rule:evenodd;stroke:#ff0000;stroke-width:2.5;stroke-linecap:butt;stroke-linejoin:miter;marker:none;marker-start:none;marker-mid:none;marker-end:none;stroke-miterlimit:4;stroke-dasharray:none;stroke-dashoffset:0;stroke-opacity:1;visibility:visible;display:inline;overflow:visible;enable-background:accumulate"
       d="M 423.3682,453.93346 L 431.97642,444.54267 L 435.88926,434.36931"
       id="path11673"
       sodipodi:nodetypes="ccc" />
    <path
       style="opacity:1;color:#000000;fill:none;fill-opacity:1;fill-rule:evenodd;stroke:#ff0000;stroke-width:2.5;stroke-linecap:butt;stroke-linejoin:miter;marker:none;marker-start:none;marker-mid:none;marker-end:none;stroke-miterlimit:4;stroke-dasharray:none;stroke-dashoffset:0;stroke-opacity:1;visibility:visible;display:inline;overflow:visible;enable-background:accumulate"
       d="M 359.98035,429.67391 L 372.50141,431.23905 L 378.76194,432.80418 L 395.97839,433.58674 L 413.19484,428.89135 L 421.80307,429.67391 L 435.10669,434.36931 L 444.49748,440.62984 L 453.10571,446.89037 L 469.53959,446.89037 L 478.14782,446.89037"
       id="path11675" />
    <path
       style="opacity:1;color:#000000;fill:none;fill-opacity:1;fill-rule:evenodd;stroke:#ff0000;stroke-width:2.5;stroke-linecap:butt;stroke-linejoin:miter;marker:none;marker-start:none;marker-mid:none;marker-end:none;stroke-miterlimit:4;stroke-dasharray:none;stroke-dashoffset:0;stroke-opacity:1;visibility:visible;display:inline;overflow:visible;enable-background:accumulate"
       d="M 791.17421,422.63082 L 800.565,424.19595 L 802.9127,420.28312 L 809.17323,426.54365 L 816.21632,425.76108 L 820.91172,423.41339 L 827.95481,427.32622 L 830.30251,437.49957 L 830.30251,446.89037 L 837.3456,449.23806 L 848.30153,457.06372 L 856.90975,453.93346 L 867.86568,457.84629 L 869.43081,466.45451 L 873.34364,474.28017 L 874.12621,481.32327 L 877.25647,496.19202 L 878.8216,502.45255 L 876.4739,513.40847 L 881.95187,519.669 L 881.1693,529.84236 L 890.56009,540.79828 L 892.12522,550.18908 L 899.16832,554.10191 L 897.60318,563.4927 L 899.95088,569.75322"
       id="path11677" />
    <path
       style="opacity:1;color:#000000;fill:none;fill-opacity:1;fill-rule:evenodd;stroke:#ff0000;stroke-width:2.5;stroke-linecap:butt;stroke-linejoin:miter;marker:none;marker-start:none;marker-mid:none;marker-end:none;stroke-miterlimit:4;stroke-dasharray:none;stroke-dashoffset:0;stroke-opacity:1;visibility:visible;display:inline;overflow:visible;enable-background:accumulate"
       d="M 482.84321,283.33407 L 481.27808,293.50743 L 476.58268,297.42026 L 467.19189,300.55053 L 462.4965,309.15875 L 453.88827,313.85415 L 448.41031,316.98441 L 445.28005,317.76698"
       id="path11679" />
    <path
       style="opacity:1;color:#000000;fill:none;fill-opacity:1;fill-rule:evenodd;stroke:#ff0000;stroke-width:2.5;stroke-linecap:butt;stroke-linejoin:miter;marker:none;marker-start:none;marker-mid:none;marker-end:none;stroke-miterlimit:4;stroke-dasharray:none;stroke-dashoffset:0;stroke-opacity:1;visibility:visible;display:inline;overflow:visible;enable-background:accumulate"
       d="M 439.80208,322.46237 L 426.49846,325.59264 L 416.3251,332.63573 L 406.15175,337.33113 L 396.76095,338.89626 L 386.5876,338.89626 L 381.10963,338.89626 L 374.84911,339.67883 L 366.24088,346.72192 L 345.1116,363.1558 L 334.93824,369.41633 L 324.76488,377.24199 L 314.59153,385.06765 L 287.98428,392.11075 L 268.42013,395.24101 L 252.76881,392.89331 L 240.24776,393.67588 L 226.16157,392.11075 L 207.37999,392.11075 L 197.20663,385.85022 L 190.16353,384.28509 L 176.85991,385.85022"
       id="path11681" />
    <path
       style="opacity:1;color:#000000;fill:none;fill-opacity:1;fill-rule:evenodd;stroke:#ff0000;stroke-width:2.5;stroke-linecap:butt;stroke-linejoin:miter;marker:none;marker-start:none;marker-mid:none;marker-end:none;stroke-miterlimit:4;stroke-dasharray:none;stroke-dashoffset:0;stroke-opacity:1;visibility:visible;display:inline;overflow:visible;enable-background:accumulate"
       d="M 434.32412,336.54856 L 424.15076,336.54856 L 416.3251,345.15679 L 405.36918,347.50449 L 392.84812,349.06962 L 379.5445,345.93935 L 372.50141,346.72192 L 371.71884,346.72192 L 353.71983,355.33015"
       id="path11683" />
    <path
       style="opacity:1;color:#000000;fill:none;fill-opacity:1;fill-rule:evenodd;stroke:#ff0000;stroke-width:2.5;stroke-linecap:butt;stroke-linejoin:miter;marker:none;marker-start:none;marker-mid:none;marker-end:none;stroke-miterlimit:4;stroke-dasharray:none;stroke-dashoffset:0;stroke-opacity:1;visibility:visible;display:inline;overflow:visible;enable-background:accumulate"
       d="M 357.63266,437.49957 L 359.19779,449.23806 L 352.15469,457.06372 L 355.28496,468.01965 L 352.93726,475.84531 L 351.37213,485.2361 L 352.93726,493.84432 L 354.50239,501.66998"
       id="path11685" />
    <path
       style="opacity:1;color:#000000;fill:none;fill-opacity:1;fill-rule:evenodd;stroke:#ff0000;stroke-width:2.5;stroke-linecap:butt;stroke-linejoin:miter;marker:none;marker-start:none;marker-mid:none;marker-end:none;stroke-miterlimit:4;stroke-dasharray:none;stroke-dashoffset:0;stroke-opacity:1;visibility:visible;display:inline;overflow:visible;enable-background:accumulate"
       d="M 424.93333,429.67391 L 431.97642,425.76108 L 436.67182,417.93542"
       id="path11687" />
    <path
       style="opacity:1;color:#000000;fill:none;fill-opacity:1;fill-rule:evenodd;stroke:#ff0000;stroke-width:2.5;stroke-linecap:butt;stroke-linejoin:miter;marker:none;marker-start:none;marker-mid:none;marker-end:none;stroke-miterlimit:4;stroke-dasharray:none;stroke-dashoffset:0;stroke-opacity:1;visibility:visible;display:inline;overflow:visible;enable-background:accumulate"
       d="M 477.36525,200.38208 L 485.19091,207.42517"
       id="path11689" />
    <path
       style="opacity:1;color:#000000;fill:none;fill-opacity:1;fill-rule:evenodd;stroke:#ff0000;stroke-width:2.5;stroke-linecap:butt;stroke-linejoin:miter;marker:none;marker-start:none;marker-mid:none;marker-end:none;stroke-miterlimit:4;stroke-dasharray:none;stroke-dashoffset:0;stroke-opacity:1;visibility:visible;display:inline;overflow:visible;enable-background:accumulate"
       d="M 500.84223,223.07649 L 507.88532,214.46827 L 511.01559,209.77287"
       id="path11691" />
    <path
       style="fill:none;fill-rule:evenodd;stroke:#ff0000;stroke-width:1px;stroke-linecap:butt;stroke-linejoin:miter;stroke-opacity:1"
       d="M 333.37311,97.08337 L 320.85205,115.86495 L 324.76488,129.95114 L 319.28692,141.68963 L 319.28692,152.64555 L 309.89613,165.16661 L 303.6356,171.42714 L 303.6356,178.47023 L 309.11356,185.51333"
       id="path11693" />
    <path
       style="opacity:1;color:#000000;fill:none;fill-opacity:1;fill-rule:evenodd;stroke:#00ff00;stroke-width:4;stroke-linecap:butt;stroke-linejoin:miter;marker:none;marker-start:none;marker-mid:none;marker-end:none;stroke-miterlimit:4;stroke-dasharray:none;stroke-dashoffset:0;stroke-opacity:1;visibility:visible;display:inline;overflow:visible;enable-background:accumulate"
       d="M 268.42013,135.4291 L 281.72375,154.99325 L 298.15764,167.51431 L 304.41817,170.64457 L 304.34675,178.91139 L 309.32697,186.6584 L 309.88032,188.31847"
       id="path11695" />
    <path
       style="opacity:1;color:#000000;fill:none;fill-opacity:1;fill-rule:evenodd;stroke:#ff0000;stroke-width:1px;stroke-linecap:butt;stroke-linejoin:miter;marker:none;marker-start:none;marker-mid:none;marker-end:none;stroke-miterlimit:4;stroke-dasharray:none;stroke-dashoffset:0;stroke-opacity:1;visibility:visible;display:inline;overflow:visible;enable-background:accumulate"
       d="M 285.63658,214.46827 L 280.15862,225.42419 L 282.50632,239.51038 L 285.63658,251.24887 L 281.72375,259.85709 L 273.89809,270.03045 L 272.33296,278.63868 L 277.81092,292.72487 L 277.81092,303.68079 L 277.81092,310.72388 L 272.33296,316.98441"
       id="path11697" />
    <path
       style="opacity:1;color:#000000;fill:none;fill-opacity:1;fill-rule:evenodd;stroke:#ff0000;stroke-width:1px;stroke-linecap:butt;stroke-linejoin:miter;marker:none;marker-start:none;marker-mid:none;marker-end:none;stroke-miterlimit:4;stroke-dasharray:none;stroke-dashoffset:0;stroke-opacity:1;visibility:visible;display:inline;overflow:visible;enable-background:accumulate"
       d="M 327.89515,217.59853 L 320.85205,226.98932 L 320.06949,237.94525 L 322.41719,248.11861 L 330.24285,259.85709 L 328.67771,273.16072 L 329.46028,284.89921 L 336.50337,294.29 L 345.89417,302.89822"
       id="path11699" />
    <path
       style="opacity:1;color:#000000;fill:none;fill-opacity:1;fill-rule:evenodd;stroke:#ff0000;stroke-width:1px;stroke-linecap:butt;stroke-linejoin:miter;marker:none;marker-start:none;marker-mid:none;marker-end:none;stroke-miterlimit:4;stroke-dasharray:none;stroke-dashoffset:0;stroke-opacity:1;visibility:visible;display:inline;overflow:visible;enable-background:accumulate"
       d="M 359.19779,250.4663 L 367.02345,241.85808 L 369.37114,235.59755 L 377.97937,234.81498 L 383.45733,234.81498"
       id="path11701" />
    <path
       style="opacity:1;color:#000000;fill:none;fill-opacity:1;fill-rule:evenodd;stroke:#ff0000;stroke-width:1px;stroke-linecap:butt;stroke-linejoin:miter;marker:none;marker-start:none;marker-mid:none;marker-end:none;stroke-miterlimit:4;stroke-dasharray:none;stroke-dashoffset:0;stroke-opacity:1;visibility:visible;display:inline;overflow:visible;enable-background:accumulate"
       d="M 467.19189,78.301786 L 467.19189,71.258692 L 461.71393,64.215599 L 453.88827,61.085335"
       id="path11703" />
    <path
       style="opacity:1;color:#000000;fill:none;fill-opacity:1;fill-rule:evenodd;stroke:#ff0000;stroke-width:1px;stroke-linecap:butt;stroke-linejoin:miter;marker:none;marker-start:none;marker-mid:none;marker-end:none;stroke-miterlimit:4;stroke-dasharray:none;stroke-dashoffset:0;stroke-opacity:1;visibility:visible;display:inline;overflow:visible;enable-background:accumulate"
       d="M 321.63462,421.84825 L 327.89515,426.54365 L 330.24285,435.93444 L 330.24285,440.62984"
       id="path11705" />
    <path
       style="opacity:1;color:#000000;fill:none;fill-opacity:1;fill-rule:evenodd;stroke:#ff0000;stroke-width:1px;stroke-linecap:butt;stroke-linejoin:miter;marker:none;marker-start:none;marker-mid:none;marker-end:none;stroke-miterlimit:4;stroke-dasharray:none;stroke-dashoffset:0;stroke-opacity:1;visibility:visible;display:inline;overflow:visible;enable-background:accumulate"
       d="M 477.36525,461.75912 L 476.58268,471.14991 L 485.97348,480.5407 L 483.62578,486.80123 L 482.84321,495.40946 L 479.71295,503.23512 L 489.88631,517.3213 L 495.36427,525.14696 L 502.40736,525.14696 L 513.36329,529.84236 L 516.49355,540.79828 L 516.49355,550.18908 L 506.32019,556.4496 L 505.53763,563.4927 L 511.79815,574.44862 L 508.66789,581.49171 L 514.92842,585.40454 L 514.92842,594.79534 L 504.75506,599.49073"
       id="path11707" />
    <path
       style="opacity:1;color:#000000;fill:none;fill-opacity:1;fill-rule:evenodd;stroke:#ff0000;stroke-width:1px;stroke-linecap:butt;stroke-linejoin:miter;marker:none;marker-start:none;marker-mid:none;marker-end:none;stroke-miterlimit:4;stroke-dasharray:none;stroke-dashoffset:0;stroke-opacity:1;visibility:visible;display:inline;overflow:visible;enable-background:accumulate"
       d="M 711.35248,680.87759 L 718.39557,675.39963 L 728.56893,666.00884 L 734.82946,660.53088 L 737.95972,656.61805"
       id="path11709" />
    <path
       style="opacity:1;color:#000000;fill:none;fill-opacity:1;fill-rule:evenodd;stroke:#ff0000;stroke-width:1px;stroke-linecap:butt;stroke-linejoin:miter;marker:none;marker-start:none;marker-mid:none;marker-end:none;stroke-miterlimit:4;stroke-dasharray:none;stroke-dashoffset:0;stroke-opacity:1;visibility:visible;display:inline;overflow:visible;enable-background:accumulate"
       d="M 888.99496,348.28705 L 883.517,338.11369 L 887.42983,332.63573 L 885.08213,325.59264 L 886.64726,323.24494 L 896.82062,323.24494 L 897.60318,316.98441 L 902.29858,310.72388 L 909.34167,302.11566"
       id="path11711" />
    <path
       style="opacity:1;color:#000000;fill:none;fill-opacity:1;fill-rule:evenodd;stroke:#ff0000;stroke-width:1px;stroke-linecap:butt;stroke-linejoin:miter;marker:none;marker-start:none;marker-mid:none;marker-end:none;stroke-miterlimit:4;stroke-dasharray:none;stroke-dashoffset:0;stroke-opacity:1;visibility:visible;display:inline;overflow:visible;enable-background:accumulate"
       d="M 722.3084,230.90215 C 722.3084,230.90215 725.43867,219.16366 725.43867,216.0334 C 725.43867,212.90314 725.43867,205.07748 725.43867,205.07748 L 725.43867,197.25182 L 715.26531,195.68668 L 700.39656,193.33899 L 696.48373,186.29589 L 698.04886,169.07944 L 704.30939,164.38404 L 696.48373,155.77582 L 686.31037,148.73272 L 677.70214,140.1245 L 671.44162,133.08141"
       id="path11714" />
    <path
       style="opacity:1;color:#000000;fill:none;fill-opacity:1;fill-rule:evenodd;stroke:#ff0000;stroke-width:1px;stroke-linecap:butt;stroke-linejoin:miter;marker:none;marker-start:none;marker-mid:none;marker-end:none;stroke-miterlimit:4;stroke-dasharray:none;stroke-dashoffset:0;stroke-opacity:1;visibility:visible;display:inline;overflow:visible;enable-background:accumulate"
       d="M 593.18502,134.64654 L 607.2712,141.68963 L 626.05279,143.25476 L 634.66101,144.03733 L 655.00773,135.4291 L 672.22418,133.08141 L 709.00478,127.60344 L 733.26433,124.47318 L 748.91565,122.12548 L 750.48078,114.29982 L 761.4367,111.16956 L 776.30546,108.82186 L 790.39164,107.25673"
       id="path11716" />
    <path
       style="opacity:1;color:#000000;fill:none;fill-opacity:1;fill-rule:evenodd;stroke:#ff0000;stroke-width:1px;stroke-linecap:butt;stroke-linejoin:miter;marker:none;marker-start:none;marker-mid:none;marker-end:none;stroke-miterlimit:4;stroke-dasharray:none;stroke-dashoffset:0;stroke-opacity:1;visibility:visible;display:inline;overflow:visible;enable-background:accumulate"
       d="M 765.34953,258.29196 L 767.69723,249.68374 L 762.21927,230.11959 L 756.74131,222.29393 L 757.52387,213.6857"
       id="path11718" />
    <path
       style="opacity:1;color:#000000;fill:none;fill-opacity:1;fill-rule:evenodd;stroke:#ff0000;stroke-width:1px;stroke-linecap:butt;stroke-linejoin:miter;marker:none;marker-start:none;marker-mid:none;marker-end:none;stroke-miterlimit:4;stroke-dasharray:none;stroke-dashoffset:0;stroke-opacity:1;visibility:visible;display:inline;overflow:visible;enable-background:accumulate"
       d="M 654.22516,214.46827 L 658.92056,199.59951 L 662.05082,187.07846 L 665.18109,183.94819"
       id="path11720" />
    <path
       style="opacity:1;color:#000000;fill:none;fill-opacity:1;fill-rule:evenodd;stroke:#ff0000;stroke-width:1px;stroke-linecap:butt;stroke-linejoin:miter;marker:none;marker-start:none;marker-mid:none;marker-end:none;stroke-miterlimit:4;stroke-dasharray:none;stroke-dashoffset:0;stroke-opacity:1;visibility:visible;display:inline;overflow:visible;enable-background:accumulate"
       d="M 587.70705,141.68963 L 607.2712,152.64555 L 621.35739,158.12352 L 650.31233,169.07944"
       id="path11722" />
    <path
       style="opacity:1;color:#000000;fill:none;fill-opacity:1;fill-rule:evenodd;stroke:#ff0000;stroke-width:1px;stroke-linecap:butt;stroke-linejoin:miter;marker:none;marker-start:none;marker-mid:none;marker-end:none;stroke-miterlimit:4;stroke-dasharray:none;stroke-dashoffset:0;stroke-opacity:1;visibility:visible;display:inline;overflow:visible;enable-background:accumulate"
       d="M 280.94119,374.11173 L 280.15862,367.8512 L 273.89809,361.59067 L 274.68066,352.98245"
       id="path11724" />
    <path
       style="opacity:1;color:#000000;fill:none;fill-opacity:1;fill-rule:evenodd;stroke:#ff0000;stroke-width:1px;stroke-linecap:butt;stroke-linejoin:miter;marker:none;marker-start:none;marker-mid:none;marker-end:none;stroke-miterlimit:4;stroke-dasharray:none;stroke-dashoffset:0;stroke-opacity:1;visibility:visible;display:inline;overflow:visible;enable-background:accumulate"
       d="M 16.433886,176.9051 L 6.2605279,177.68767"
       id="path11726" />
    <path
       style="opacity:1;color:#000000;fill:none;fill-opacity:1;fill-rule:evenodd;stroke:#ff0000;stroke-width:1px;stroke-linecap:butt;stroke-linejoin:miter;marker:none;marker-start:none;marker-mid:none;marker-end:none;stroke-miterlimit:4;stroke-dasharray:none;stroke-dashoffset:0;stroke-opacity:1;visibility:visible;display:inline;overflow:visible;enable-background:accumulate"
       d="M 313.02639,183.94819 L 315.37409,170.64457 L 322.41719,156.55838 L 331.80798,145.60246"
       id="path11728"
       sodipodi:nodetypes="cccc" />
    <path
       style="opacity:1;color:#000000;fill:none;fill-opacity:1;fill-rule:evenodd;stroke:#ff0000;stroke-width:1px;stroke-linecap:butt;stroke-linejoin:miter;marker:none;marker-start:none;marker-mid:none;marker-end:none;stroke-miterlimit:4;stroke-dasharray:none;stroke-dashoffset:0;stroke-opacity:1;visibility:visible;display:inline;overflow:visible;enable-background:accumulate"
       d="M 451.54057,125.25575 L 451.54057,116.64752"
       id="path11730" />
    <path
       style="opacity:1;color:#000000;fill:none;fill-opacity:1;fill-rule:evenodd;stroke:#ff0000;stroke-width:2.5;stroke-linecap:butt;stroke-linejoin:miter;marker:none;marker-start:none;marker-mid:none;marker-end:none;stroke-miterlimit:4;stroke-dasharray:none;stroke-dashoffset:0;stroke-opacity:1;visibility:visible;display:inline;overflow:visible;enable-background:accumulate"
       d="M 169.03425,75.954088 L 169.81682,90.040276 L 172.16452,104.12646"
       id="path11732" />
    <path
       style="opacity:1;color:#000000;fill:none;fill-opacity:1;fill-rule:evenodd;stroke:#ff0000;stroke-width:2.5;stroke-linecap:butt;stroke-linejoin:miter;marker:none;marker-start:none;marker-mid:none;marker-end:none;stroke-miterlimit:4;stroke-dasharray:none;stroke-dashoffset:0;stroke-opacity:1;visibility:visible;display:inline;overflow:visible;enable-background:accumulate"
       d="M 472.66985,262.98736 L 471.10472,272.37815 L 467.97446,278.63868 L 460.1488,288.02947"
       id="path11734" />
    <path
       style="opacity:1;color:#000000;fill:none;fill-opacity:1;fill-rule:evenodd;stroke:#ff0000;stroke-width:2.5;stroke-linecap:butt;stroke-linejoin:miter;marker:none;marker-start:none;marker-mid:none;marker-end:none;stroke-miterlimit:4;stroke-dasharray:none;stroke-dashoffset:0;stroke-opacity:1;visibility:visible;display:inline;overflow:visible;enable-background:accumulate"
       d="M 480.49551,93.953106 L 478.93038,101.77877 L 475.01755,104.12646 L 470.32216,103.3439"
       id="path11736" />
    <path
       style="opacity:1;color:#000000;fill:none;fill-opacity:1;fill-rule:evenodd;stroke:#ff0000;stroke-width:2.5;stroke-linecap:butt;stroke-linejoin:miter;marker:none;marker-start:none;marker-mid:none;marker-end:none;stroke-miterlimit:4;stroke-dasharray:none;stroke-dashoffset:0;stroke-opacity:1;visibility:visible;display:inline;overflow:visible;enable-background:accumulate"
       d="M 477.36525,112.73469 L 483.62578,112.73469 L 485.97348,112.73469"
       id="path11738" />
    <path
       style="opacity:1;color:#000000;fill:none;fill-opacity:1;fill-rule:evenodd;stroke:#ff0000;stroke-width:2.5;stroke-linecap:butt;stroke-linejoin:miter;marker:none;marker-start:none;marker-mid:none;marker-end:none;stroke-miterlimit:4;stroke-dasharray:none;stroke-dashoffset:0;stroke-opacity:1;visibility:visible;display:inline;overflow:visible;enable-background:accumulate"
       d="M 598.66298,429.67391 L 605.70607,432.02161"
       id="path11740" />
  </g>
</svg>
