<?xml version="1.0" encoding="UTF-8" standalone="no"?>
<!-- Created with Inkscape (http://www.inkscape.org/) -->

<svg
   xmlns:dc="http://purl.org/dc/elements/1.1/"
   xmlns:cc="http://creativecommons.org/ns#"
   xmlns:rdf="http://www.w3.org/1999/02/22-rdf-syntax-ns#"
   xmlns:svg="http://www.w3.org/2000/svg"
   xmlns="http://www.w3.org/2000/svg"
   xmlns:sodipodi="http://sodipodi.sourceforge.net/DTD/sodipodi-0.dtd"
   xmlns:inkscape="http://www.inkscape.org/namespaces/inkscape"
   id="svg2211"
   sodipodi:version="0.32"
   inkscape:version="0.91 r13725"
   width="230"
   height="203"
   version="1.0"
   sodipodi:docname="3dinterpolation.svg"
   inkscape:output_extension="org.inkscape.output.svg.inkscape">
  <metadata
     id="metadata2216">
    <rdf:RDF>
      <cc:Work
         rdf:about="">
        <dc:format>image/svg+xml</dc:format>
        <dc:type
           rdf:resource="http://purl.org/dc/dcmitype/StillImage" />
      </cc:Work>
    </rdf:RDF>
  </metadata>
  <defs
     id="defs2214" />
  <sodipodi:namedview
     inkscape:window-height="750"
     inkscape:window-width="1280"
     inkscape:pageshadow="2"
     inkscape:pageopacity="0.0"
     guidetolerance="10.0"
     gridtolerance="10.0"
     objecttolerance="10.0"
     borderopacity="1.0"
     bordercolor="#666666"
     pagecolor="#ffffff"
     id="base"
     inkscape:zoom="2.8284271"
     inkscape:cx="109.72179"
     inkscape:cy="101.03727"
     inkscape:window-x="-8"
     inkscape:window-y="-8"
     inkscape:current-layer="svg2211"
     showgrid="false"
     inkscape:window-maximized="0" />
  <g
     inkscape:groupmode="layer"
     id="layer3"
     inkscape:label="1">
    <path
       style="fill:none;fill-rule:evenodd;stroke:#ebebeb;stroke-width:1px;stroke-linecap:butt;stroke-linejoin:miter;stroke-opacity:1"
       d="m 80.51685,17.606444 0,112.900356 115.10688,0"
       id="path9023"
       inkscape:connector-curvature="0" />
  </g>
  <path
     style="fill:none;fill-rule:evenodd;stroke:#fff9c1;stroke-width:1.99920559;stroke-linecap:butt;stroke-linejoin:miter;stroke-miterlimit:4;stroke-dasharray:none;stroke-opacity:1"
     d="m 80.504077,17.724599 -49.810823,49.810824 115.612576,0 48.98371,-48.983707 0,111.660804 -49.12156,49.12156 -114.923315,0 0,-111.614853"
     id="path2226"
     inkscape:connector-curvature="0" />
  <path
     style="fill:none;fill-rule:evenodd;stroke:#fff9c1;stroke-width:2;stroke-linecap:butt;stroke-linejoin:miter;stroke-opacity:1;stroke-miterlimit:4;stroke-dasharray:none"
     d="M 146.7337,67.666667 L 146.7337,179.09601"
     id="path2228" />
  <path
     style="fill:none;fill-rule:evenodd;stroke:#fff9c1;stroke-width:2.00324869;stroke-linecap:butt;stroke-linejoin:miter;stroke-miterlimit:4;stroke-dasharray:none;stroke-opacity:1"
     d="M 79.791606,18.019928 L 195.64168,18.019928"
     id="path5139" />
  <path
     style="fill:none;fill-rule:evenodd;stroke:#0000ff;stroke-width:1.8;stroke-linecap:butt;stroke-linejoin:miter;stroke-opacity:1;stroke-miterlimit:4;stroke-dasharray:none"
     d="M 67.298913,67.666667 L 146.7337,18.387681"
     id="path6110" />
  <path
     style="fill:none;fill-rule:evenodd;stroke:#0000ff;stroke-width:1.8;stroke-linecap:butt;stroke-linejoin:miter;stroke-opacity:1;stroke-miterlimit:4;stroke-dasharray:none"
     d="M 98.925725,48.911232 L 121.72645,146.7337"
     id="path7081" />
  <path
     style="fill:none;fill-rule:evenodd;stroke:#0000ff;stroke-width:1.8;stroke-linecap:butt;stroke-linejoin:miter;stroke-opacity:1;stroke-miterlimit:4;stroke-dasharray:none"
     d="M 88.628623,179.09601 L 137.35598,130.36866"
     id="path8052" />
  <path
     style="fill:none;fill-rule:evenodd;stroke:#ebebeb;stroke-width:1.00672495px;stroke-linecap:butt;stroke-linejoin:miter;stroke-opacity:1"
     d="M 31.630174,179.46041 80.50011,130.59047"
     id="path9994"
     inkscape:connector-curvature="0" />
  <path
     sodipodi:type="arc"
     style="opacity:1;fill:#0000ff;fill-opacity:1;stroke:#0000ff;stroke-width:1.2;stroke-linecap:round;stroke-linejoin:round;stroke-miterlimit:4;stroke-dasharray:none;stroke-opacity:1"
     id="path10970"
     sodipodi:cx="34.56884"
     sodipodi:cy="70.976448"
     sodipodi:rx="3.3097825"
     sodipodi:ry="3.3097825"
     d="M 37.878623,70.976448 A 3.3097825,3.3097825 0 1 1 37.878499,70.947803"
     sodipodi:start="0"
     sodipodi:end="6.2745306"
     sodipodi:open="true"
     transform="translate(-3.3097826,-3.3097826)" />
  <path
     sodipodi:type="arc"
     style="opacity:1;fill:#0000ff;fill-opacity:1;stroke:#0000ff;stroke-width:1.20000005;stroke-linecap:round;stroke-linejoin:round;stroke-miterlimit:4;stroke-dasharray:none;stroke-opacity:1"
     id="path11941"
     sodipodi:cx="32.36232"
     sodipodi:cy="180.19928"
     sodipodi:rx="2.942029"
     sodipodi:ry="2.942029"
     d="M 35.304349,180.19928 A 2.942029,2.942029 0 1 1 35.304239,180.17382"
     sodipodi:start="0"
     sodipodi:end="6.2745306"
     sodipodi:open="true"
     transform="translate(-1.4710145,-0.3677536)" />
  <path
     sodipodi:type="arc"
     style="opacity:1;fill:#0000ff;fill-opacity:1;stroke:#0000ff;stroke-width:1.20000005;stroke-linecap:round;stroke-linejoin:round;stroke-miterlimit:4;stroke-dasharray:none;stroke-opacity:1"
     id="path12912"
     sodipodi:cx="89.180252"
     sodipodi:cy="180.0154"
     sodipodi:rx="3.1259058"
     sodipodi:ry="3.1259058"
     d="M 92.306158,180.0154 A 3.1259058,3.1259058 0 1 1 92.306041,179.98834"
     sodipodi:start="0"
     sodipodi:end="6.2745306"
     sodipodi:open="true" />
  <path
     sodipodi:type="arc"
     style="opacity:1;fill:#0000ff;fill-opacity:1;stroke:#0000ff;stroke-width:1.20000005;stroke-linecap:round;stroke-linejoin:round;stroke-miterlimit:4;stroke-dasharray:none;stroke-opacity:1"
     id="path12914"
     sodipodi:cx="145.99818"
     sodipodi:cy="179.83153"
     sodipodi:rx="3.3097825"
     sodipodi:ry="3.3097825"
     d="M 149.30797,179.83153 A 3.3097825,3.3097825 0 1 1 149.30784,179.80288"
     sodipodi:start="0"
     sodipodi:end="6.2745306"
     sodipodi:open="true"
     transform="translate(0.3677536,-0.3677536)" />
  <path
     sodipodi:type="arc"
     style="opacity:1;fill:#0000ff;fill-opacity:1;stroke:#0000ff;stroke-width:1.20000005;stroke-linecap:round;stroke-linejoin:round;stroke-miterlimit:4;stroke-dasharray:none;stroke-opacity:1"
     id="path12916"
     sodipodi:cx="195.64493"
     sodipodi:cy="129.81703"
     sodipodi:rx="3.3097825"
     sodipodi:ry="3.3097825"
     d="M 198.95471,129.81703 A 3.3097825,3.3097825 0 1 1 198.95459,129.78839"
     sodipodi:start="0"
     sodipodi:end="6.2745306"
     sodipodi:open="true"
     transform="translate(0,0.7355072)" />
  <path
     sodipodi:type="arc"
     style="opacity:1;fill:#0000ff;fill-opacity:1;stroke:#0000ff;stroke-width:1.20000005;stroke-linecap:round;stroke-linejoin:round;stroke-miterlimit:4;stroke-dasharray:none;stroke-opacity:1"
     id="path12918"
     sodipodi:cx="195.46104"
     sodipodi:cy="18.571558"
     sodipodi:rx="3.4936595"
     sodipodi:ry="3.4936595"
     d="M 198.9547,18.571558 A 3.4936595,3.4936595 0 1 1 198.95457,18.541322"
     sodipodi:start="0"
     sodipodi:end="6.2745306"
     sodipodi:open="true" />
  <path
     sodipodi:type="arc"
     style="opacity:1;fill:#0000ff;fill-opacity:1;stroke:#0000ff;stroke-width:1.20000005;stroke-linecap:round;stroke-linejoin:round;stroke-miterlimit:4;stroke-dasharray:none;stroke-opacity:1"
     id="path12920"
     sodipodi:cx="146.18207"
     sodipodi:cy="67.115036"
     sodipodi:rx="3.4936595"
     sodipodi:ry="3.4936595"
     d="M 149.67573,67.115036 A 3.4936595,3.4936595 0 1 1 149.6756,67.0848"
     sodipodi:start="0"
     sodipodi:end="6.2745306"
     sodipodi:open="true" />
  <path
     sodipodi:type="arc"
     style="opacity:1;fill:#0000ff;fill-opacity:1;stroke:#0000ff;stroke-width:1.20000005;stroke-linecap:round;stroke-linejoin:round;stroke-miterlimit:4;stroke-dasharray:none;stroke-opacity:1"
     id="path12922"
     sodipodi:cx="68.034424"
     sodipodi:cy="67.666664"
     sodipodi:rx="3.6775362"
     sodipodi:ry="3.6775362"
     d="M 71.71196,67.666664 A 3.6775362,3.6775362 0 1 1 71.711822,67.634837"
     sodipodi:start="0"
     sodipodi:end="6.2745306"
     sodipodi:open="true" />
  <path
     sodipodi:type="arc"
     style="opacity:1;fill:#0000ff;fill-opacity:1;stroke:#0000ff;stroke-width:1.20000005;stroke-linecap:round;stroke-linejoin:round;stroke-miterlimit:4;stroke-dasharray:none;stroke-opacity:1"
     id="path12924"
     sodipodi:cx="146.18207"
     sodipodi:cy="18.571558"
     sodipodi:rx="3.4936595"
     sodipodi:ry="3.4936595"
     d="M 149.67573,18.571558 A 3.4936595,3.4936595 0 1 1 149.6756,18.541322"
     sodipodi:start="0"
     sodipodi:end="6.2745306"
     sodipodi:open="true" />
  <path
     sodipodi:type="arc"
     style="opacity:1;fill:#0000ff;fill-opacity:1;stroke:#0000ff;stroke-width:1.20000005;stroke-linecap:round;stroke-linejoin:round;stroke-miterlimit:4;stroke-dasharray:none;stroke-opacity:1"
     id="path12926"
     sodipodi:cx="137.53986"
     sodipodi:cy="130.92029"
     sodipodi:rx="2.942029"
     sodipodi:ry="2.942029"
     d="M 140.48188,130.92029 A 2.942029,2.942029 0 1 1 140.48177,130.89483"
     sodipodi:start="0"
     sodipodi:end="6.2745306"
     sodipodi:open="true" />
  <path
     sodipodi:type="arc"
     style="opacity:1;fill:#ff0000;fill-opacity:1;stroke:#ff0000;stroke-width:1.20000005;stroke-linecap:round;stroke-linejoin:round;stroke-miterlimit:4;stroke-dasharray:none;stroke-opacity:1"
     id="path12928"
     sodipodi:cx="111.24547"
     sodipodi:cy="108.6712"
     sodipodi:rx="3.4936595"
     sodipodi:ry="3.4936595"
     d="M 114.73913,108.6712 A 3.4936595,3.4936595 0 1 1 114.739,108.64097"
     sodipodi:start="0"
     sodipodi:end="6.2745306"
     sodipodi:open="true"
     transform="translate(1.1032609,0)" />
  <path
     sodipodi:type="arc"
     style="opacity:1;fill:#00ff00;fill-opacity:1;stroke:#00ff00;stroke-width:1.20000005;stroke-linecap:round;stroke-linejoin:round;stroke-miterlimit:4;stroke-dasharray:none;stroke-opacity:1"
     id="path13899"
     sodipodi:cx="121.17482"
     sodipodi:cy="146.91757"
     sodipodi:rx="2.3903985"
     sodipodi:ry="2.3903985"
     d="M 123.56522,146.91757 A 2.3903985,2.3903985 0 1 1 123.56513,146.89688"
     sodipodi:start="0"
     sodipodi:end="6.2745306"
     sodipodi:open="true"
     transform="translate(0.7355072,-2.318842e-8)" />
  <path
     sodipodi:type="arc"
     style="opacity:1;fill:#00ff00;fill-opacity:1;stroke:#00ff00;stroke-width:1.20000005;stroke-linecap:round;stroke-linejoin:round;stroke-miterlimit:4;stroke-dasharray:none;stroke-opacity:1"
     id="path14870"
     sodipodi:cx="121.17482"
     sodipodi:cy="146.91757"
     sodipodi:rx="2.3903985"
     sodipodi:ry="2.3903985"
     d="M 123.56522,146.91757 A 2.3903985,2.3903985 0 1 1 123.56513,146.89688"
     sodipodi:start="0"
     sodipodi:end="6.2745306"
     sodipodi:open="true"
     transform="translate(-22.249095,-98.374094)" />
  <path
     style="fill:#e6e6e6;fill-opacity:1"
     d="M 8.6113281,57.694836 L 8.6113281,58.942883 C 8.2128833,58.571796 7.788079,58.294453 7.3369141,58.110852 C 6.8857362,57.927266 6.4062445,57.835469 5.8984375,57.835461 C 4.8984335,57.835469 4.1328093,58.141133 3.6015625,58.752453 C 3.0703103,59.363788 2.8046856,60.247576 2.8046875,61.403821 C 2.8046856,62.556167 3.0703103,63.438003 3.6015625,64.049328 C 4.1328093,64.660658 4.8984335,64.966321 5.8984375,64.966321 C 6.4062445,64.966321 6.8857362,64.874525 7.3369141,64.69093 C 7.788079,64.507337 8.2128833,64.229994 8.6113281,63.858899 L 8.6113281,65.095227 C 8.1972583,65.376477 7.7587822,65.587414 7.2958984,65.728039 C 6.8330019,65.868664 6.3437445,65.938977 5.828125,65.938977 C 4.5039026,65.938977 3.4609349,65.533704 2.6992188,64.723156 C 1.9374989,63.912611 1.55664,62.806167 1.5566406,61.403821 C 1.55664,59.997576 1.9374989,58.889179 2.6992188,58.078625 C 3.4609349,57.268087 4.5039026,56.862814 5.828125,56.862805 C 6.351557,56.862814 6.8447206,56.93215 7.3076172,57.070813 C 7.7705009,57.209493 8.2050708,57.417501 8.6113281,57.694836 L 8.6113281,57.694836 z "
     id="flowRoot14872" />
  <path
     d="M 11.623457,64.881368 C 11.115642,64.881375 10.733969,65.131212 10.478437,65.63088 C 10.222902,66.13056 10.095135,66.881698 10.095137,67.884298 C 10.095135,68.883649 10.222902,69.63316 10.478437,70.132833 C 10.733969,70.632508 11.115642,70.882345 11.623457,70.882345 C 12.134521,70.882345 12.517821,70.632508 12.773359,70.132833 C 13.028889,69.63316 13.156655,68.883649 13.15666,67.884298 C 13.156655,66.881698 13.028889,66.13056 12.773359,65.63088 C 12.517821,65.131212 12.134521,64.881375 11.623457,64.881368 L 11.623457,64.881368 z M 11.623457,64.100118 C 12.44051,64.100125 13.064696,64.423205 13.496016,65.069356 C 13.927325,65.715521 14.142982,66.653834 14.142988,67.884298 C 14.142982,69.111514 13.927325,70.048199 13.496016,70.694356 C 13.064696,71.340515 12.44051,71.663594 11.623457,71.663595 C 10.806397,71.663594 10.182212,71.340515 9.7508984,70.694356 C 9.3195828,70.048199 9.1039254,69.111514 9.1039261,67.884298 C 9.1039254,66.653834 9.3195828,65.715521 9.7508984,65.069356 C 10.182212,64.423205 10.806397,64.100125 11.623457,64.100118 L 11.623457,64.100118 z M 17.990644,64.881368 C 17.482829,64.881375 17.101156,65.131212 16.845625,65.63088 C 16.590089,66.13056 16.462322,66.881698 16.462324,67.884298 C 16.462322,68.883649 16.590089,69.63316 16.845625,70.132833 C 17.101156,70.632508 17.482829,70.882345 17.990644,70.882345 C 18.501708,70.882345 18.885009,70.632508 19.140547,70.132833 C 19.396076,69.63316 19.523843,68.883649 19.523848,67.884298 C 19.523843,66.881698 19.396076,66.13056 19.140547,65.63088 C 18.885009,65.131212 18.501708,64.881375 17.990644,64.881368 L 17.990644,64.881368 z M 17.990644,64.100118 C 18.807698,64.100125 19.431883,64.423205 19.863203,65.069356 C 20.294513,65.715521 20.51017,66.653834 20.510176,67.884298 C 20.51017,69.111514 20.294513,70.048199 19.863203,70.694356 C 19.431883,71.340515 18.807698,71.663594 17.990644,71.663595 C 17.173585,71.663594 16.549399,71.340515 16.118086,70.694356 C 15.68677,70.048199 15.471113,69.111514 15.471113,67.884298 C 15.471113,66.653834 15.68677,65.715521 16.118086,65.069356 C 16.549399,64.423205 17.173585,64.100125 17.990644,64.100118 L 17.990644,64.100118 z M 22.419355,70.691915 L 24.030684,70.691915 L 24.030684,65.130392 L 22.277754,65.481954 L 22.277754,64.583517 L 24.020918,64.231954 L 25.007246,64.231954 L 25.007246,70.691915 L 26.618574,70.691915 L 26.618574,71.521993 L 22.419355,71.521993 L 22.419355,70.691915 z "
     id="flowRoot14889"
     style="fill:#e6e6e6;fill-opacity:1" />
  <path
     d="M 92.523721,29.024017 L 92.523721,30.272064 C 92.125276,29.900977 91.700471,29.623634 91.249307,29.440033 C 90.798129,29.256447 90.318637,29.16465 89.81083,29.164642 C 88.810826,29.16465 88.045202,29.470314 87.513955,30.081634 C 86.982703,30.692969 86.717078,31.576757 86.71708,32.733002 C 86.717078,33.885348 86.982703,34.767184 87.513955,35.378509 C 88.045202,35.989839 88.810826,36.295502 89.81083,36.295502 C 90.318637,36.295502 90.798129,36.203706 91.249307,36.020111 C 91.700471,35.836518 92.125276,35.559175 92.523721,35.18808 L 92.523721,36.424408 C 92.109651,36.705658 91.671175,36.916595 91.208291,37.05722 C 90.745394,37.197845 90.256137,37.268158 89.740517,37.268158 C 88.416295,37.268158 87.373327,36.862885 86.611611,36.052337 C 85.849891,35.241792 85.469032,34.135348 85.469033,32.733002 C 85.469032,31.326757 85.849891,30.21836 86.611611,29.407806 C 87.373327,28.597268 88.416295,28.191995 89.740517,28.191986 C 90.263949,28.191995 90.757113,28.261331 91.22001,28.399994 C 91.682893,28.538674 92.117463,28.746682 92.523721,29.024017 L 92.523721,29.024017 z "
     id="path14898"
     style="stroke:none;stroke-opacity:1;stroke-width:0;stroke-miterlimit:4;stroke-dasharray:none;fill:#00ff00;fill-opacity:1" />
  <path
     style="fill:#00ff00;fill-opacity:1"
     d="M 94.646484,41.263926 L 96.257813,41.263926 L 96.257813,35.702403 L 94.504883,36.053965 L 94.504883,35.155528 L 96.248047,34.803965 L 97.234375,34.803965 L 97.234375,41.263926 L 98.845703,41.263926 L 98.845703,42.094004 L 94.646484,42.094004 L 94.646484,41.263926 z "
     id="flowRoot15869" />
  <path
     d="M 148.79002,2.178003 L 148.79002,3.42605 C 148.39158,3.054963 147.96678,2.77762 147.51561,2.594019 C 147.06443,2.410433 146.58494,2.318636 146.07713,2.318628 C 145.07713,2.318636 144.31151,2.6243 143.78026,3.23562 C 143.24901,3.846955 142.98338,4.730743 142.98338,5.886988 C 142.98338,7.039334 143.24901,7.92117 143.78026,8.532495 C 144.31151,9.143825 145.07713,9.449488 146.07713,9.449488 C 146.58494,9.449488 147.06443,9.357692 147.51561,9.174097 C 147.96678,8.990504 148.39158,8.713161 148.79002,8.342066 L 148.79002,9.578394 C 148.37596,9.859644 147.93748,10.070581 147.4746,10.211206 C 147.0117,10.351831 146.52244,10.422144 146.00682,10.422144 C 144.6826,10.422144 143.63963,10.016871 142.87792,9.206323 C 142.1162,8.395778 141.73534,7.289334 141.73534,5.886988 C 141.73534,4.480743 142.1162,3.372346 142.87792,2.561792 C 143.63963,1.751254 144.6826,1.345981 146.00682,1.345972 C 146.53025,1.345981 147.02342,1.415317 147.48631,1.55398 C 147.9492,1.69266 148.38377,1.900668 148.79002,2.178003 L 148.79002,2.178003 z "
     id="path16847"
     style="fill:#4f4fff;fill-opacity:1" />
  <path
     style="font-size:10px;fill:#4f4fff;fill-opacity:1"
     d="M 151.27148,13.701426 L 152.88281,13.701426 L 152.88281,8.1399025 L 151.12988,8.491465 L 151.12988,7.5930275 L 152.87305,7.241465 L 153.85938,7.241465 L 153.85938,13.701426 L 155.4707,13.701426 L 155.4707,14.531504 L 151.27148,14.531504 L 151.27148,13.701426 z M 157.63867,13.701426 L 159.25,13.701426 L 159.25,8.1399025 L 157.49707,8.491465 L 157.49707,7.5930275 L 159.24023,7.241465 L 160.22656,7.241465 L 160.22656,13.701426 L 161.83789,13.701426 L 161.83789,14.531504 L 157.63867,14.531504 L 157.63867,13.701426 z "
     id="flowRoot17818" />
  <path
     d="M 200.27553,5.120032 L 200.27553,6.368079 C 199.87709,5.996992 199.45228,5.719649 199.00112,5.536048 C 198.54994,5.352462 198.07045,5.260665 197.56264,5.260657 C 196.56264,5.260665 195.79701,5.566329 195.26577,6.177649 C 194.73451,6.788984 194.46889,7.672772 194.46889,8.829017 C 194.46889,9.981363 194.73451,10.863199 195.26577,11.474524 C 195.79701,12.085854 196.56264,12.391517 197.56264,12.391517 C 198.07045,12.391517 198.54994,12.299721 199.00112,12.116126 C 199.45228,11.932533 199.87709,11.65519 200.27553,11.284095 L 200.27553,12.520423 C 199.86146,12.801673 199.42299,13.01261 198.9601,13.153235 C 198.49721,13.29386 198.00795,13.364173 197.49233,13.364173 C 196.16811,13.364173 195.12514,12.9589 194.36342,12.148352 C 193.6017,11.337807 193.22084,10.231363 193.22084,8.829017 C 193.22084,7.422772 193.6017,6.314375 194.36342,5.503821 C 195.12514,4.693283 196.16811,4.28801 197.49233,4.288001 C 198.01576,4.28801 198.50892,4.357346 198.97182,4.496009 C 199.4347,4.634689 199.86927,4.842697 200.27553,5.120032 L 200.27553,5.120032 z "
     id="path18796"
     style="fill:#e6e6e6;fill-opacity:1" />
  <path
     style="font-size:12px;font-style:normal;font-weight:normal;fill:#e6e6e6;fill-opacity:1;stroke:none;stroke-width:1px;stroke-linecap:butt;stroke-linejoin:miter;stroke-opacity:1;font-family:MS UI Gothic"
     d="M 203.51224,10.292799 C 203.79348,10.011557 203.94973,9.6990569 203.98099,9.3552989 L 204.54349,9.3552989 L 204.54349,17.464674 L 203.46536,17.464674 L 203.46536,11.230299 L 202.05911,11.230299 L 202.05911,10.667799 L 202.48099,10.667799 C 202.91848,10.667806 203.26223,10.542806 203.51224,10.292799 L 203.51224,10.292799 z M 209.51224,10.292799 C 209.79348,10.011557 209.94973,9.6990569 209.98099,9.3552989 L 210.54349,9.3552989 L 210.54349,17.464674 L 209.46536,17.464674 L 209.46536,11.230299 L 208.05911,11.230299 L 208.05911,10.667799 L 208.48099,10.667799 C 208.91848,10.667806 209.26223,10.542806 209.51224,10.292799 L 209.51224,10.292799 z M 215.51224,10.292799 C 215.79348,10.011557 215.94973,9.6990569 215.98099,9.3552989 L 216.54349,9.3552989 L 216.54349,17.464674 L 215.46536,17.464674 L 215.46536,11.230299 L 214.05911,11.230299 L 214.05911,10.667799 L 214.48099,10.667799 C 214.91848,10.667806 215.26223,10.542806 215.51224,10.292799 L 215.51224,10.292799 z "
     id="text18798" />
  <path
     d="M 210.57263,126.11097 L 210.57263,127.35902 C 210.17419,126.98793 209.74939,126.71059 209.29822,126.52699 C 208.84704,126.3434 208.36755,126.25161 207.85974,126.2516 C 206.85974,126.25161 206.09412,126.55727 205.56287,127.16859 C 205.03162,127.77993 204.76599,128.66371 204.76599,129.81996 C 204.76599,130.97231 205.03162,131.85414 205.56287,132.46547 C 206.09412,133.0768 206.85974,133.38246 207.85974,133.38246 C 208.36755,133.38246 208.84704,133.29066 209.29822,133.10707 C 209.74939,132.92348 210.17419,132.64613 210.57263,132.27504 L 210.57263,133.51137 C 210.15856,133.79262 209.72009,134.00355 209.2572,134.14418 C 208.79431,134.2848 208.30505,134.35512 207.78943,134.35512 C 206.46521,134.35512 205.42224,133.94984 204.66053,133.13929 C 203.89881,132.32875 203.51795,131.22231 203.51795,129.81996 C 203.51795,128.41371 203.89881,127.30532 204.66053,126.49476 C 205.42224,125.68423 206.46521,125.27895 207.78943,125.27894 C 208.31286,125.27895 208.80603,125.34829 209.26892,125.48695 C 209.73181,125.62563 210.16638,125.83364 210.57263,126.11097 L 210.57263,126.11097 z "
     id="path18803"
     style="fill:#e6e6e6;fill-opacity:1" />
  <path
     d="M 211.58896,138.73993 L 213.20029,138.73993 L 213.20029,133.1784 L 211.44736,133.52997 L 211.44736,132.63153 L 213.19053,132.27997 L 214.17686,132.27997 L 214.17686,138.73993 L 215.78818,138.73993 L 215.78818,139.57 L 211.58896,139.57 L 211.58896,138.73993 z M 217.95615,138.73993 L 219.56748,138.73993 L 219.56748,133.1784 L 217.81455,133.52997 L 217.81455,132.63153 L 219.55771,132.27997 L 220.54404,132.27997 L 220.54404,138.73993 L 222.15537,138.73993 L 222.15537,139.57 L 217.95615,139.57 L 217.95615,138.73993 z M 226.26182,132.92938 C 225.754,132.92939 225.37233,133.17922 225.1168,133.67889 C 224.86126,134.17857 224.73349,134.92971 224.7335,135.93231 C 224.73349,136.93166 224.86126,137.68117 225.1168,138.18084 C 225.37233,138.68052 225.754,138.93036 226.26182,138.93036 C 226.77288,138.93036 227.15618,138.68052 227.41172,138.18084 C 227.66725,137.68117 227.79501,136.93166 227.79502,135.93231 C 227.79501,134.92971 227.66725,134.17857 227.41172,133.67889 C 227.15618,133.17922 226.77288,132.92939 226.26182,132.92938 L 226.26182,132.92938 z M 226.26182,132.14813 C 227.07887,132.14814 227.70305,132.47122 228.13437,133.11737 C 228.56568,133.76353 228.78134,134.70184 228.78135,135.93231 C 228.78134,137.15952 228.56568,138.09621 228.13437,138.74237 C 227.70305,139.38853 227.07887,139.71161 226.26182,139.71161 C 225.44476,139.71161 224.82057,139.38853 224.38926,138.74237 C 223.95794,138.09621 223.74228,137.15952 223.74228,135.93231 C 223.74228,134.70184 223.95794,133.76353 224.38926,133.11737 C 224.82057,132.47122 225.44476,132.14814 226.26182,132.14813 L 226.26182,132.14813 z "
     id="flowRoot18813"
     style="fill:#e6e6e6;fill-opacity:1" />
  <path
     d="M 139.59618,187.15808 L 139.59618,188.40612 C 139.19774,188.03504 138.77294,187.75769 138.32177,187.57409 C 137.87059,187.39051 137.3911,187.29871 136.88329,187.2987 C 135.88329,187.29871 135.11767,187.60437 134.58642,188.21569 C 134.05517,188.82703 133.78954,189.71082 133.78954,190.86706 C 133.78954,192.01941 134.05517,192.90124 134.58642,193.51257 C 135.11767,194.1239 135.88329,194.42956 136.88329,194.42956 C 137.3911,194.42956 137.87059,194.33776 138.32177,194.15417 C 138.77294,193.97058 139.19774,193.69323 139.59618,193.32214 L 139.59618,194.55847 C 139.18211,194.83972 138.74364,195.05065 138.28075,195.19128 C 137.81786,195.3319 137.3286,195.40222 136.81298,195.40222 C 135.48876,195.40222 134.44579,194.99694 133.68408,194.1864 C 132.92236,193.37585 132.5415,192.26941 132.5415,190.86706 C 132.5415,189.46082 132.92236,188.35242 133.68408,187.54186 C 134.44579,186.73133 135.48876,186.32605 136.81298,186.32604 C 137.33641,186.32605 137.82958,186.39539 138.29247,186.53405 C 138.75536,186.67273 139.18993,186.88074 139.59618,187.15808 L 139.59618,187.15808 z "
     id="path18822"
     style="fill:#e6e6e6;fill-opacity:1" />
  <path
     d="M 142.08624,199.04473 L 143.69757,199.04473 L 143.69757,193.4832 L 141.94464,193.83477 L 141.94464,192.93633 L 143.68781,192.58477 L 144.67414,192.58477 L 144.67414,199.04473 L 146.28546,199.04473 L 146.28546,199.8748 L 142.08624,199.8748 L 142.08624,199.04473 z M 150.39191,193.23418 C 149.88409,193.23419 149.50242,193.48402 149.24689,193.98369 C 148.99135,194.48337 148.86359,195.23451 148.86359,196.23711 C 148.86359,197.23646 148.99135,197.98597 149.24689,198.48564 C 149.50242,198.98532 149.88409,199.23516 150.39191,199.23516 C 150.90297,199.23516 151.28627,198.98532 151.54181,198.48564 C 151.79734,197.98597 151.92511,197.23646 151.92511,196.23711 C 151.92511,195.23451 151.79734,194.48337 151.54181,193.98369 C 151.28627,193.48402 150.90297,193.23419 150.39191,193.23418 L 150.39191,193.23418 z M 150.39191,192.45293 C 151.20896,192.45294 151.83315,192.77602 152.26447,193.42217 C 152.69578,194.06833 152.91143,195.00664 152.91144,196.23711 C 152.91143,197.46432 152.69578,198.40101 152.26447,199.04717 C 151.83315,199.69333 151.20896,200.01641 150.39191,200.01641 C 149.57485,200.01641 148.95066,199.69333 148.51935,199.04717 C 148.08803,198.40101 147.87238,197.46432 147.87238,196.23711 C 147.87238,195.00664 148.08803,194.06833 148.51935,193.42217 C 148.95066,192.77602 149.57485,192.45294 150.39191,192.45293 L 150.39191,192.45293 z M 156.7591,193.23418 C 156.25128,193.23419 155.86961,193.48402 155.61408,193.98369 C 155.35854,194.48337 155.23077,195.23451 155.23078,196.23711 C 155.23077,197.23646 155.35854,197.98597 155.61408,198.48564 C 155.86961,198.98532 156.25128,199.23516 156.7591,199.23516 C 157.27016,199.23516 157.65346,198.98532 157.909,198.48564 C 158.16453,197.98597 158.29229,197.23646 158.2923,196.23711 C 158.29229,195.23451 158.16453,194.48337 157.909,193.98369 C 157.65346,193.48402 157.27016,193.23419 156.7591,193.23418 L 156.7591,193.23418 z M 156.7591,192.45293 C 157.57615,192.45294 158.20033,192.77602 158.63165,193.42217 C 159.06296,194.06833 159.27862,195.00664 159.27863,196.23711 C 159.27862,197.46432 159.06296,198.40101 158.63165,199.04717 C 158.20033,199.69333 157.57615,200.01641 156.7591,200.01641 C 155.94204,200.01641 155.31785,199.69333 154.88654,199.04717 C 154.45522,198.40101 154.23956,197.46432 154.23956,196.23711 C 154.23956,195.00664 154.45522,194.06833 154.88654,193.42217 C 155.31785,192.77602 155.94204,192.45294 156.7591,192.45293 L 156.7591,192.45293 z "
     id="flowRoot18824"
     style="fill:#e6e6e6;fill-opacity:1" />
  <path
     d="M 23.753793,182.74503 L 23.753793,183.99308 C 23.355348,183.62199 22.930544,183.34465 22.479379,183.16105 C 22.028201,182.97746 21.548709,182.88567 21.040902,182.88566 C 20.040898,182.88567 19.275274,183.19133 18.744027,183.80265 C 18.212775,184.41399 17.94715,185.29777 17.947152,186.45402 C 17.94715,187.60637 18.212775,188.4882 18.744027,189.09953 C 19.275274,189.71086 20.040898,190.01652 21.040902,190.01652 C 21.548709,190.01652 22.028201,189.92472 22.479379,189.74113 C 22.930544,189.55754 23.355348,189.28019 23.753793,188.9091 L 23.753793,190.14543 C 23.339723,190.42668 22.901247,190.63761 22.438363,190.77824 C 21.975467,190.91886 21.486209,190.98918 20.97059,190.98918 C 19.646367,190.98918 18.6034,190.5839 17.841684,189.77335 C 17.079964,188.96281 16.699105,187.85637 16.699105,186.45402 C 16.699105,185.04777 17.079964,183.93938 17.841684,183.12882 C 18.6034,182.31829 19.646367,181.91301 20.97059,181.913 C 21.494022,181.91301 21.987185,181.98235 22.450082,182.12101 C 22.912966,182.25969 23.347536,182.4677 23.753793,182.74503 L 23.753793,182.74503 z "
     id="path18833"
     style="fill:#e6e6e6;fill-opacity:1" />
  <path
     style="fill:#e6e6e6;fill-opacity:1"
     d="M 27.459961,189.92213 C 26.952146,189.92214 26.570473,190.17197 26.314941,190.67164 C 26.059406,191.17132 25.931639,191.92246 25.931641,192.92506 C 25.931639,193.92441 26.059406,194.67392 26.314941,195.17359 C 26.570473,195.67327 26.952146,195.92311 27.459961,195.92311 C 27.971025,195.92311 28.354325,195.67327 28.609863,195.17359 C 28.865393,194.67392 28.993159,193.92441 28.993164,192.92506 C 28.993159,191.92246 28.865393,191.17132 28.609863,190.67164 C 28.354325,190.17197 27.971025,189.92214 27.459961,189.92213 L 27.459961,189.92213 z M 27.459961,189.14088 C 28.277014,189.14089 28.9012,189.46397 29.33252,190.11012 C 29.763829,190.75628 29.979486,191.69459 29.979492,192.92506 C 29.979486,194.15227 29.763829,195.08896 29.33252,195.73512 C 28.9012,196.38128 28.277014,196.70436 27.459961,196.70436 C 26.642901,196.70436 26.018716,196.38128 25.587402,195.73512 C 25.156086,195.08896 24.940429,194.15227 24.94043,192.92506 C 24.940429,191.69459 25.156086,190.75628 25.587402,190.11012 C 26.018716,189.46397 26.642901,189.14089 27.459961,189.14088 L 27.459961,189.14088 z M 33.827148,189.92213 C 33.319333,189.92214 32.93766,190.17197 32.682129,190.67164 C 32.426593,191.17132 32.298826,191.92246 32.298828,192.92506 C 32.298826,193.92441 32.426593,194.67392 32.682129,195.17359 C 32.93766,195.67327 33.319333,195.92311 33.827148,195.92311 C 34.338212,195.92311 34.721513,195.67327 34.977051,195.17359 C 35.23258,194.67392 35.360347,193.92441 35.360352,192.92506 C 35.360347,191.92246 35.23258,191.17132 34.977051,190.67164 C 34.721513,190.17197 34.338212,189.92214 33.827148,189.92213 L 33.827148,189.92213 z M 33.827148,189.14088 C 34.644202,189.14089 35.268387,189.46397 35.699707,190.11012 C 36.131017,190.75628 36.346674,191.69459 36.34668,192.92506 C 36.346674,194.15227 36.131017,195.08896 35.699707,195.73512 C 35.268387,196.38128 34.644202,196.70436 33.827148,196.70436 C 33.010089,196.70436 32.385903,196.38128 31.95459,195.73512 C 31.523274,195.08896 31.307617,194.15227 31.307617,192.92506 C 31.307617,191.69459 31.523274,190.75628 31.95459,190.11012 C 32.385903,189.46397 33.010089,189.14089 33.827148,189.14088 L 33.827148,189.14088 z M 40.194336,189.92213 C 39.686521,189.92214 39.304848,190.17197 39.049316,190.67164 C 38.793781,191.17132 38.666014,191.92246 38.666016,192.92506 C 38.666014,193.92441 38.793781,194.67392 39.049316,195.17359 C 39.304848,195.67327 39.686521,195.92311 40.194336,195.92311 C 40.7054,195.92311 41.0887,195.67327 41.344238,195.17359 C 41.599768,194.67392 41.727534,193.92441 41.727539,192.92506 C 41.727534,191.92246 41.599768,191.17132 41.344238,190.67164 C 41.0887,190.17197 40.7054,189.92214 40.194336,189.92213 L 40.194336,189.92213 z M 40.194336,189.14088 C 41.011389,189.14089 41.635575,189.46397 42.066895,190.11012 C 42.498204,190.75628 42.713861,191.69459 42.713867,192.92506 C 42.713861,194.15227 42.498204,195.08896 42.066895,195.73512 C 41.635575,196.38128 41.011389,196.70436 40.194336,196.70436 C 39.377276,196.70436 38.753091,196.38128 38.321777,195.73512 C 37.890461,195.08896 37.674804,194.15227 37.674805,192.92506 C 37.674804,191.69459 37.890461,190.75628 38.321777,190.11012 C 38.753091,189.46397 39.377276,189.14089 40.194336,189.14088 L 40.194336,189.14088 z "
     id="flowRoot18835" />
  <path
     d="M 88.846184,188.99684 L 88.846184,190.24489 C 88.44774,189.8738 88.022935,189.59646 87.57177,189.41286 C 87.120592,189.22927 86.641101,189.13748 86.133294,189.13747 C 85.13329,189.13748 84.367666,189.44314 83.836419,190.05446 C 83.305167,190.6658 83.039542,191.54958 83.039544,192.70583 C 83.039542,193.85817 83.305167,194.74001 83.836419,195.35134 C 84.367666,195.96267 85.13329,196.26833 86.133294,196.26833 C 86.641101,196.26833 87.120592,196.17653 87.57177,195.99294 C 88.022935,195.80934 88.44774,195.532 88.846184,195.16091 L 88.846184,196.39723 C 88.432115,196.67848 87.993638,196.88942 87.530755,197.03005 C 87.067858,197.17067 86.578601,197.24098 86.062981,197.24098 C 84.738759,197.24098 83.695791,196.83571 82.934075,196.02516 C 82.172355,195.21462 81.791496,194.10817 81.791497,192.70583 C 81.791496,191.29958 82.172355,190.19119 82.934075,189.38063 C 83.695791,188.57009 84.738759,188.16482 86.062981,188.16481 C 86.586413,188.16482 87.079577,188.23416 87.542473,188.37282 C 88.005357,188.5115 88.439927,188.71951 88.846184,188.99684 L 88.846184,188.99684 z "
     id="path18844"
     style="fill:#4f4fff;fill-opacity:1" />
  <path
     style="font-size:10px;fill:#4f4fff;fill-opacity:1;stroke:none"
     d="M 92.553711,194.70338 C 92.045896,194.70339 91.664223,194.95322 91.408691,195.45289 C 91.153156,195.95257 91.025389,196.70371 91.025391,197.70631 C 91.025389,198.70566 91.153156,199.45517 91.408691,199.95484 C 91.664223,200.45452 92.045896,200.70436 92.553711,200.70436 C 93.064775,200.70436 93.448075,200.45452 93.703613,199.95484 C 93.959143,199.45517 94.086909,198.70566 94.086914,197.70631 C 94.086909,196.70371 93.959143,195.95257 93.703613,195.45289 C 93.448075,194.95322 93.064775,194.70339 92.553711,194.70338 L 92.553711,194.70338 z M 92.553711,193.92213 C 93.370764,193.92214 93.99495,194.24522 94.42627,194.89137 C 94.857579,195.53753 95.073236,196.47584 95.073242,197.70631 C 95.073236,198.93352 94.857579,199.87021 94.42627,200.51637 C 93.99495,201.16253 93.370764,201.48561 92.553711,201.48561 C 91.736651,201.48561 91.112466,201.16253 90.681152,200.51637 C 90.249836,199.87021 90.034179,198.93352 90.03418,197.70631 C 90.034179,196.47584 90.249836,195.53753 90.681152,194.89137 C 91.112466,194.24522 91.736651,193.92214 92.553711,193.92213 L 92.553711,193.92213 z M 98.920898,194.70338 C 98.413083,194.70339 98.03141,194.95322 97.775879,195.45289 C 97.520343,195.95257 97.392576,196.70371 97.392578,197.70631 C 97.392576,198.70566 97.520343,199.45517 97.775879,199.95484 C 98.03141,200.45452 98.413083,200.70436 98.920898,200.70436 C 99.431962,200.70436 99.815263,200.45452 100.0708,199.95484 C 100.32633,199.45517 100.4541,198.70566 100.4541,197.70631 C 100.4541,196.70371 100.32633,195.95257 100.0708,195.45289 C 99.815263,194.95322 99.431962,194.70339 98.920898,194.70338 L 98.920898,194.70338 z M 98.920898,193.92213 C 99.737952,193.92214 100.36214,194.24522 100.79346,194.89137 C 101.22477,195.53753 101.44042,196.47584 101.44043,197.70631 C 101.44042,198.93352 101.22477,199.87021 100.79346,200.51637 C 100.36214,201.16253 99.737952,201.48561 98.920898,201.48561 C 98.103839,201.48561 97.479653,201.16253 97.04834,200.51637 C 96.617024,199.87021 96.401367,198.93352 96.401367,197.70631 C 96.401367,196.47584 96.617024,195.53753 97.04834,194.89137 C 97.479653,194.24522 98.103839,193.92214 98.920898,193.92213 L 98.920898,193.92213 z "
     id="flowRoot19815" />
  <path
     d="M 131.5056,151.85373 L 131.5056,153.10177 C 131.10716,152.73069 130.68236,152.45334 130.23119,152.26974 C 129.78001,152.08616 129.30052,151.99436 128.79271,151.99435 C 127.79271,151.99436 127.02709,152.30002 126.49584,152.91134 C 125.96459,153.52268 125.69896,154.40647 125.69896,155.56271 C 125.69896,156.71506 125.96459,157.59689 126.49584,158.20822 C 127.02709,158.81955 127.79271,159.12521 128.79271,159.12521 C 129.30052,159.12521 129.78001,159.03342 130.23119,158.84982 C 130.68236,158.66623 131.10716,158.38889 131.5056,158.01779 L 131.5056,159.25412 C 131.09153,159.53537 130.65306,159.74631 130.19017,159.88693 C 129.72728,160.02756 129.23802,160.09787 128.7224,160.09787 C 127.39818,160.09787 126.35521,159.6926 125.5935,158.88205 C 124.83178,158.0715 124.45092,156.96506 124.45092,155.56271 C 124.45092,154.15647 124.83178,153.04807 125.5935,152.23752 C 126.35521,151.42698 127.39818,151.02171 128.7224,151.0217 C 129.24583,151.02171 129.739,151.09104 130.20189,151.2297 C 130.66478,151.36838 131.09935,151.57639 131.5056,151.85373 L 131.5056,151.85373 z "
     id="path20797"
     style="fill:#00ff00;fill-opacity:1" />
  <path
     style="fill:#00ff00;fill-opacity:1"
     d="M 134.82998,157.19115 C 134.32217,157.19116 133.94049,157.44099 133.68496,157.94066 C 133.42943,158.44034 133.30166,159.19148 133.30166,160.19408 C 133.30166,161.19343 133.42943,161.94294 133.68496,162.44261 C 133.94049,162.94229 134.32217,163.19213 134.82998,163.19213 C 135.34104,163.19213 135.72435,162.94229 135.97988,162.44261 C 136.23541,161.94294 136.36318,161.19343 136.36318,160.19408 C 136.36318,159.19148 136.23541,158.44034 135.97988,157.94066 C 135.72435,157.44099 135.34104,157.19116 134.82998,157.19115 L 134.82998,157.19115 z M 134.82998,156.4099 C 135.64703,156.40991 136.27122,156.73299 136.70254,157.37914 C 137.13385,158.0253 137.34951,158.96361 137.34951,160.19408 C 137.34951,161.42129 137.13385,162.35798 136.70254,163.00414 C 136.27122,163.6503 135.64703,163.97338 134.82998,163.97338 C 134.01292,163.97338 133.38874,163.6503 132.95742,163.00414 C 132.52611,162.35798 132.31045,161.42129 132.31045,160.19408 C 132.31045,158.96361 132.52611,158.0253 132.95742,157.37914 C 133.38874,156.73299 134.01292,156.40991 134.82998,156.4099 L 134.82998,156.4099 z "
     id="flowRoot21768" />
  <path
     d="M 131.87336,108.82655 L 131.87336,110.0746 C 131.47491,109.70351 131.05011,109.42617 130.59894,109.24257 C 130.14777,109.05898 129.66827,108.96719 129.16047,108.96718 C 128.16046,108.96719 127.39484,109.27285 126.86359,109.88417 C 126.33234,110.49551 126.06672,111.37929 126.06672,112.53554 C 126.06672,113.68788 126.33234,114.56972 126.86359,115.18105 C 127.39484,115.79238 128.16046,116.09804 129.16047,116.09804 C 129.66827,116.09804 130.14777,116.00624 130.59894,115.82265 C 131.05011,115.63905 131.47491,115.36171 131.87336,114.99062 L 131.87336,116.22694 C 131.45929,116.50819 131.02081,116.71913 130.55793,116.85976 C 130.09503,117.00038 129.60577,117.07069 129.09016,117.07069 C 127.76593,117.07069 126.72297,116.66542 125.96125,115.85487 C 125.19953,115.04433 124.81867,113.93788 124.81867,112.53554 C 124.81867,111.12929 125.19953,110.0209 125.96125,109.21034 C 126.72297,108.3998 127.76593,107.99453 129.09016,107.99452 C 129.61359,107.99453 130.10675,108.06387 130.56965,108.20253 C 131.03253,108.34121 131.4671,108.54922 131.87336,108.82655 L 131.87336,108.82655 z "
     id="path22746"
     style="fill:#4f4fff;fill-opacity:1" />
  <path
     style="fill:#4f4fff;fill-opacity:1"
     d="M 133.64648,123.63893 L 135.25781,123.63893 L 135.25781,118.0774 L 133.50488,118.42897 L 133.50488,117.53053 L 135.24805,117.17897 L 136.23438,117.17897 L 136.23438,123.63893 L 137.8457,123.63893 L 137.8457,124.469 L 133.64648,124.469 L 133.64648,123.63893 z M 141.95215,117.82838 C 141.44433,117.82839 141.06266,118.07822 140.80713,118.57789 C 140.55159,119.07757 140.42383,119.82871 140.42383,120.83131 C 140.42383,121.83066 140.55159,122.58017 140.80713,123.07984 C 141.06266,123.57952 141.44433,123.82936 141.95215,123.82936 C 142.46321,123.82936 142.84651,123.57952 143.10205,123.07984 C 143.35758,122.58017 143.48535,121.83066 143.48535,120.83131 C 143.48535,119.82871 143.35758,119.07757 143.10205,118.57789 C 142.84651,118.07822 142.46321,117.82839 141.95215,117.82838 L 141.95215,117.82838 z M 141.95215,117.04713 C 142.7692,117.04714 143.39339,117.37022 143.82471,118.01637 C 144.25602,118.66253 144.47167,119.60084 144.47168,120.83131 C 144.47167,122.05852 144.25602,122.99521 143.82471,123.64137 C 143.39339,124.28753 142.7692,124.61061 141.95215,124.61061 C 141.13509,124.61061 140.5109,124.28753 140.07959,123.64137 C 139.64827,122.99521 139.43262,122.05852 139.43262,120.83131 C 139.43262,119.60084 139.64827,118.66253 140.07959,118.01637 C 140.5109,117.37022 141.13509,117.04714 141.95215,117.04713 L 141.95215,117.04713 z "
     id="flowRoot23717" />
  <path
     d="M 106.1306,104.78126 L 106.1306,106.02931 C 105.73216,105.65822 105.30736,105.38088 104.85619,105.19728 C 104.40501,105.01369 103.92552,104.9219 103.41771,104.92189 C 102.41771,104.9219 101.65209,105.22756 101.12084,105.83888 C 100.58959,106.45022 100.32396,107.334 100.32396,108.49025 C 100.32396,109.64259 100.58959,110.52443 101.12084,111.13576 C 101.65209,111.74709 102.41771,112.05275 103.41771,112.05275 C 103.92552,112.05275 104.40501,111.96095 104.85619,111.77736 C 105.30736,111.59376 105.73216,111.31642 106.1306,110.94533 L 106.1306,112.18165 C 105.71653,112.4629 105.27806,112.67384 104.81517,112.81447 C 104.35228,112.95509 103.86302,113.0254 103.3474,113.0254 C 102.02318,113.0254 100.98021,112.62013 100.2185,111.80958 C 99.456775,110.99904 99.075917,109.89259 99.075917,108.49025 C 99.075917,107.084 99.456775,105.97561 100.2185,105.16505 C 100.98021,104.35451 102.02318,103.94924 103.3474,103.94923 C 103.87083,103.94924 104.364,104.01858 104.82689,104.15724 C 105.28978,104.29592 105.72435,104.50393 106.1306,104.78126 L 106.1306,104.78126 z "
     id="path24699"
     style="fill:#ff0000;fill-opacity:1" />
  <path
     d="M 66.780967,72.786699 L 66.780967,74.034746 C 66.382523,73.663659 65.957718,73.386316 65.506553,73.202715 C 65.055376,73.019129 64.575884,72.927332 64.068077,72.927324 C 63.068073,72.927332 62.302449,73.232996 61.771202,73.844316 C 61.23995,74.455651 60.974325,75.339439 60.974327,76.495684 C 60.974325,77.64803 61.23995,78.529866 61.771202,79.141191 C 62.302449,79.752521 63.068073,80.058184 64.068077,80.058184 C 64.575884,80.058184 65.055376,79.966388 65.506553,79.782793 C 65.957718,79.5992 66.382523,79.321857 66.780967,78.950762 L 66.780967,80.18709 C 66.366898,80.46834 65.928422,80.679277 65.465538,80.819902 C 65.002641,80.960527 64.513384,81.03084 63.997764,81.03084 C 62.673542,81.03084 61.630574,80.625567 60.868858,79.815019 C 60.107138,79.004474 59.726279,77.89803 59.72628,76.495684 C 59.726279,75.089439 60.107138,73.981042 60.868858,73.170488 C 61.630574,72.35995 62.673542,71.954677 63.997764,71.954668 C 64.521196,71.954677 65.01436,72.024013 65.477257,72.162676 C 65.94014,72.301356 66.37471,72.509364 66.780967,72.786699 L 66.780967,72.786699 z "
     id="path25670"
     style="fill:#4f4fff;fill-opacity:1" />
  <path
     style="fill:#4f4fff;fill-opacity:1"
     d="M 70.108512,79.957908 C 69.600697,79.957915 69.219024,80.207752 68.963492,80.70742 C 68.707957,81.2071 68.58019,81.958238 68.580192,82.960838 C 68.58019,83.960189 68.707957,84.7097 68.963492,85.209373 C 69.219024,85.709048 69.600697,85.958885 70.108512,85.958885 C 70.619576,85.958885 71.002876,85.709048 71.258414,85.209373 C 71.513944,84.7097 71.64171,83.960189 71.641715,82.960838 C 71.64171,81.958238 71.513944,81.2071 71.258414,80.70742 C 71.002876,80.207752 70.619576,79.957915 70.108512,79.957908 L 70.108512,79.957908 z M 70.108512,79.176658 C 70.925565,79.176665 71.549751,79.499745 71.981071,80.145896 C 72.41238,80.792061 72.628037,81.730374 72.628043,82.960838 C 72.628037,84.188054 72.41238,85.124739 71.981071,85.770896 C 71.549751,86.417055 70.925565,86.740134 70.108512,86.740135 C 69.291452,86.740134 68.667267,86.417055 68.235953,85.770896 C 67.804637,85.124739 67.58898,84.188054 67.588981,82.960838 C 67.58898,81.730374 67.804637,80.792061 68.235953,80.145896 C 68.667267,79.499745 69.291452,79.176665 70.108512,79.176658 L 70.108512,79.176658 z M 74.537223,85.768455 L 76.148551,85.768455 L 76.148551,80.206932 L 74.395621,80.558494 L 74.395621,79.660057 L 76.138785,79.308494 L 77.125114,79.308494 L 77.125114,85.768455 L 78.736442,85.768455 L 78.736442,86.598533 L 74.537223,86.598533 L 74.537223,85.768455 z "
     id="flowRoot26641" />
</svg>
